<svg width="290" height="296" viewBox="0 0 290 296" fill="none" xmlns="http://www.w3.org/2000/svg">
<mask id="mask0_45_95" style="mask-type:alpha" maskUnits="userSpaceOnUse" x="0" y="0" width="290" height="290">
<circle cx="145" cy="145" r="139" stroke="black" stroke-width="12"/>
<path d="M90.0625 139.844C86.9896 139.844 84.3776 138.768 82.2266 136.617C80.0755 134.466 79 131.854 79 128.781V90.0625C79 86.9896 80.0755 84.3776 82.2266 82.2266C84.3776 80.0755 86.9896 79 90.0625 79H128.781C131.854 79 134.466 80.0755 136.617 82.2266C138.768 84.3776 139.844 86.9896 139.844 90.0625V128.781C139.844 131.854 138.768 134.466 136.617 136.617C134.466 138.768 131.854 139.844 128.781 139.844H90.0625ZM90.0625 211.75C86.9896 211.75 84.3776 210.674 82.2266 208.523C80.0755 206.372 79 203.76 79 200.688V161.969C79 158.896 80.0755 156.284 82.2266 154.133C84.3776 151.982 86.9896 150.906 90.0625 150.906H128.781C131.854 150.906 134.466 151.982 136.617 154.133C138.768 156.284 139.844 158.896 139.844 161.969V200.688C139.844 203.76 138.768 206.372 136.617 208.523C134.466 210.674 131.854 211.75 128.781 211.75H90.0625ZM161.969 139.844C158.896 139.844 156.284 138.768 154.133 136.617C151.982 134.466 150.906 131.854 150.906 128.781V90.0625C150.906 86.9896 151.982 84.3776 154.133 82.2266C156.284 80.0755 158.896 79 161.969 79H200.688C203.76 79 206.372 80.0755 208.523 82.2266C210.674 84.3776 211.75 86.9896 211.75 90.0625V128.781C211.75 131.854 210.674 134.466 208.523 136.617C206.372 138.768 203.76 139.844 200.688 139.844H161.969ZM161.969 211.75C158.896 211.75 156.284 210.674 154.133 208.523C151.982 206.372 150.906 203.76 150.906 200.688V161.969C150.906 158.896 151.982 156.284 154.133 154.133C156.284 151.982 158.896 150.906 161.969 150.906H200.688C203.76 150.906 206.372 151.982 208.523 154.133C210.674 156.284 211.75 158.896 211.75 161.969V200.688C211.75 203.76 210.674 206.372 208.523 208.523C206.372 210.674 203.76 211.75 200.688 211.75H161.969ZM90.0625 128.781H128.781V90.0625H90.0625V128.781ZM161.969 128.781H200.688V90.0625H161.969V128.781ZM161.969 200.688H200.688V161.969H161.969V200.688ZM90.0625 200.688H128.781V161.969H90.0625V200.688Z" fill="black"/>
</mask>
<g mask="url(#mask0_45_95)">
<rect width="290" height="296" fill="url(#paint0_linear_45_95)"/>
</g>
<defs>
<linearGradient id="paint0_linear_45_95" x1="145" y1="0" x2="145" y2="296" gradientUnits="userSpaceOnUse">
<stop stop-color="#3113F1"/>
<stop offset="1" stop-color="#883DF2"/>
</linearGradient>
</defs>
</svg>
