<svg width="937" height="675" viewBox="0 0 937 675" fill="none" xmlns="http://www.w3.org/2000/svg">
<g id="Group 122">
<g id="cash">
<circle id="Ellipse 27" cx="723.9" cy="385.729" r="166.729" stroke="url(#paint0_linear_254_1661)" stroke-width="12"/>
<path id="Vector" d="M721.906 483.557C719.399 483.557 717.327 482.739 715.687 481.103C714.048 479.467 713.229 477.398 713.229 474.895V459.304C703.973 457.764 696.067 454.492 689.51 449.487C682.954 444.482 677.844 438.13 674.18 430.431C673.216 428.313 673.216 426.1 674.18 423.79C675.144 421.48 676.783 419.844 679.097 418.882C681.219 417.919 683.388 417.919 685.605 418.882C687.823 419.844 689.51 421.384 690.667 423.501C694.138 430.046 698.67 434.954 704.262 438.226C709.854 441.499 716.314 443.135 723.642 443.135C732.898 443.135 740.515 440.825 746.492 436.205C752.47 431.586 755.459 425.234 755.459 417.149C755.459 408.68 752.808 402.135 747.505 397.516C742.202 392.896 732.223 388.18 717.568 383.368C703.684 378.941 693.319 373.07 686.473 365.755C679.628 358.441 676.205 349.298 676.205 338.326C676.205 327.739 679.628 318.885 686.473 311.763C693.319 304.641 702.237 300.598 713.229 299.636V284.333C713.229 281.831 714.048 279.762 715.687 278.126C717.327 276.489 719.399 275.671 721.906 275.671C724.413 275.671 726.486 276.489 728.125 278.126C729.764 279.762 730.584 281.831 730.584 284.333V299.636C737.526 300.598 743.745 302.716 749.24 305.988C754.736 309.26 759.316 313.495 762.98 318.692C764.33 320.617 764.619 322.686 763.847 324.9C763.076 327.113 761.533 328.701 759.219 329.664C757.098 330.626 754.881 330.723 752.567 329.953C750.253 329.183 748.324 327.739 746.782 325.622C744.082 322.157 740.756 319.606 736.803 317.97C732.85 316.334 728.077 315.516 722.485 315.516C713.614 315.516 706.576 317.537 701.37 321.579C696.163 325.622 693.56 331.108 693.56 338.037C693.56 345.352 696.452 351.271 702.237 355.794C708.022 360.317 718.725 364.985 734.344 369.797C747.457 373.84 757.147 379.662 763.414 387.266C769.681 394.869 772.814 404.445 772.814 415.994C772.814 428.121 769.247 437.89 762.112 445.3C754.977 452.711 744.468 457.475 730.584 459.592V474.895C730.584 477.398 729.764 479.467 728.125 481.103C726.486 482.739 724.413 483.557 721.906 483.557Z" fill="url(#paint1_linear_254_1661)"/>
</g>
<g id="bitcoin">
<circle id="Ellipse 24" cx="584.171" cy="112" r="106" stroke="url(#paint2_linear_254_1661)" stroke-width="12"/>
<path id="Vector_2" d="M566.584 176.883C565.026 176.883 563.738 176.372 562.719 175.351C561.701 174.329 561.192 173.038 561.192 171.476V160.662H543.218C541.661 160.662 540.372 160.151 539.354 159.13C538.335 158.109 537.826 156.817 537.826 155.255C537.826 153.693 538.335 152.401 539.354 151.38C540.372 150.359 541.661 149.848 543.218 149.848H554.002V74.1517H543.218C541.661 74.1517 540.372 73.641 539.354 72.6197C538.335 71.5984 537.826 70.3068 537.826 68.7448C537.826 67.1828 538.335 65.8911 539.354 64.8698C540.372 63.8485 541.661 63.3379 543.218 63.3379H561.192V52.5241C561.192 50.9621 561.701 49.6704 562.719 48.6491C563.738 47.6278 565.026 47.1172 566.584 47.1172C568.141 47.1172 569.43 47.6278 570.448 48.6491C571.467 49.6704 571.976 50.9621 571.976 52.5241V63.3379H591.747V52.5241C591.747 50.9621 592.256 49.6704 593.274 48.6491C594.293 47.6278 595.581 47.1172 597.139 47.1172C598.696 47.1172 599.984 47.6278 601.003 48.6491C602.021 49.6704 602.531 50.9621 602.531 52.5241V63.8786C609.001 65.2003 614.213 68.3843 618.168 73.4307C622.122 78.4772 624.099 84.1244 624.099 90.3724C624.099 93.7367 623.44 97.0709 622.122 100.375C620.804 103.679 618.887 106.653 616.37 109.296C621.043 111.7 624.698 115.094 627.334 119.479C629.97 123.865 631.288 128.581 631.288 133.628C631.288 141.197 628.682 147.595 623.47 152.822C618.257 158.049 611.877 160.662 604.328 160.662H602.531V171.476C602.531 173.038 602.021 174.329 601.003 175.351C599.984 176.372 598.696 176.883 597.139 176.883C595.581 176.883 594.293 176.372 593.274 175.351C592.256 174.329 591.747 173.038 591.747 171.476V160.662H571.976V171.476C571.976 173.038 571.467 174.329 570.448 175.351C569.43 176.372 568.141 176.883 566.584 176.883ZM564.786 106.593H597.139C601.692 106.593 605.526 105.001 608.642 101.817C611.757 98.6329 613.315 94.818 613.315 90.3724C613.315 85.8065 611.757 81.9616 608.642 78.8376C605.526 75.7137 601.692 74.1517 597.139 74.1517H564.786V106.593ZM564.786 149.848H604.328C608.881 149.848 612.716 148.256 615.831 145.072C618.946 141.888 620.504 138.073 620.504 133.628C620.504 129.062 618.946 125.217 615.831 122.093C612.716 118.969 608.881 117.407 604.328 117.407H564.786V149.848Z" fill="url(#paint3_linear_254_1661)"/>
</g>
<g id="eterium" filter="url(#filter0_d_254_1661)">
<circle id="Ellipse 28" cx="283.5" cy="391.5" r="237.5" stroke="url(#paint4_linear_254_1661)" stroke-width="12"/>
<path id="Vector_3" fill-rule="evenodd" clip-rule="evenodd" d="M270.556 270.485L194.131 439.844L270.556 452.318V270.485ZM294.289 270.485V452.318L370.713 439.844L294.289 270.485ZM282.422 553.076L207.126 464.001L277.483 475.484C280.754 476.018 284.09 476.018 287.362 475.484L357.719 464.001L282.422 553.076ZM300.45 226.442C293.446 210.92 271.399 210.92 264.394 226.442L168.887 438.088C165.752 445.032 166.889 453.16 171.809 458.979L267.316 571.964C275.217 581.31 289.628 581.31 297.528 571.964L393.036 458.979C397.955 453.16 399.092 445.032 395.957 438.088L300.45 226.442Z" fill="url(#paint5_linear_254_1661)"/>
</g>
<g id="fondo-cel">
<path id="Vector_4" d="M538.174 614.751L573.175 635L608.171 614.747L608.169 574.247L573.169 554L538.171 574.251L538.174 614.751Z" stroke="#3113F1" stroke-opacity="0.5" stroke-width="5" stroke-linecap="round" stroke-linejoin="round"/>
<path id="Vector_5" d="M274.174 92.7513L309.175 113L344.171 92.7475L344.169 52.2475L309.169 32L274.171 52.2513L274.174 92.7513Z" stroke="#3113F1" stroke-opacity="0.5" stroke-width="5" stroke-linecap="round" stroke-linejoin="round"/>
<path id="Vector_6" d="M849.174 240.001L885.175 261L921.171 239.997L921.169 197.997L885.169 177L849.171 198.001L849.174 240.001Z" stroke="#3113F1" stroke-opacity="0.5" stroke-width="5" stroke-linecap="round" stroke-linejoin="round"/>
<path id="Vector_7" d="M921.171 325.747C921.171 321.473 924.635 318 928.918 318C933.192 318 936.665 321.464 936.665 325.747C936.665 330.022 933.201 333.494 928.918 333.494C924.635 333.494 921.171 330.03 921.171 325.747Z" fill="#3113F1" fill-opacity="0.5"/>
<path id="Vector_8" d="M778.171 80.6226C778.171 76.4106 781.582 73 785.793 73C790.005 73 793.415 76.4106 793.415 80.6226C793.415 84.8346 790.005 88.2452 785.793 88.2452C781.582 88.2452 778.171 84.8346 778.171 80.6226Z" fill="#3113F1" fill-opacity="0.5"/>
<g id="Group 120">
<path id="Vector_9" d="M751.632 164.091C751.632 160.983 754.152 158.454 757.269 158.454C760.376 158.454 762.905 160.974 762.905 164.091C762.905 167.207 760.385 169.728 757.269 169.728C754.161 169.728 751.632 167.207 751.632 164.091Z" fill="#3113F1" fill-opacity="0.5"/>
<path id="Vector_10" d="M765.311 172.141C769.755 167.697 769.755 160.491 765.311 156.047C760.867 151.603 753.662 151.603 749.218 156.047C744.774 160.491 744.774 167.697 749.218 172.141C753.662 176.586 760.867 176.586 765.311 172.141Z" stroke="#3113F1" stroke-opacity="0.5" stroke-width="4" stroke-linecap="round" stroke-linejoin="round"/>
</g>
<g id="Group 119">
<path id="Vector_11" d="M402.632 95.0907C402.632 91.9829 405.152 89.4541 408.269 89.4541C411.376 89.4541 413.905 91.974 413.905 95.0907C413.905 98.2074 411.385 100.728 408.269 100.728C405.161 100.728 402.632 98.2074 402.632 95.0907Z" fill="#3113F1" fill-opacity="0.5"/>
<path id="Vector_12" d="M416.311 103.141C420.755 98.6969 420.755 91.4914 416.311 87.0471C411.867 82.6027 404.662 82.6027 400.218 87.0471C395.774 91.4914 395.774 98.6969 400.218 103.141C404.662 107.586 411.867 107.586 416.311 103.141Z" stroke="#3113F1" stroke-opacity="0.5" stroke-width="4" stroke-linecap="round" stroke-linejoin="round"/>
</g>
<g id="Group 121">
<path id="Vector_13" d="M418.632 16.0907C418.632 12.9829 421.152 10.4541 424.269 10.4541C427.376 10.4541 429.905 12.974 429.905 16.0907C429.905 19.2074 427.385 21.7276 424.269 21.7276C421.161 21.7276 418.632 19.2074 418.632 16.0907Z" fill="#3113F1" fill-opacity="0.5"/>
<path id="Vector_14" d="M432.311 24.1413C436.755 19.6969 436.755 12.4914 432.311 8.04705C427.867 3.60273 420.662 3.60273 416.218 8.04705C411.774 12.4914 411.774 19.6969 416.218 24.1413C420.662 28.5856 427.867 28.5856 432.311 24.1413Z" stroke="#3113F1" stroke-opacity="0.5" stroke-width="4" stroke-linecap="round" stroke-linejoin="round"/>
</g>
<g id="Group 118">
<path id="Vector_15" d="M879.632 97.0907C879.632 93.9829 882.152 91.4541 885.269 91.4541C888.376 91.4541 890.905 93.974 890.905 97.0907C890.905 100.207 888.385 102.728 885.269 102.728C882.161 102.728 879.632 100.207 879.632 97.0907Z" fill="#3113F1" fill-opacity="0.5"/>
<path id="Vector_16" d="M893.311 105.141C897.755 100.697 897.755 93.4914 893.311 89.0471C888.867 84.6027 881.662 84.6027 877.218 89.0471C872.774 93.4914 872.774 100.697 877.218 105.141C881.662 109.586 888.867 109.586 893.311 105.141Z" stroke="#3113F1" stroke-opacity="0.5" stroke-width="4" stroke-linecap="round" stroke-linejoin="round"/>
</g>
</g>
</g>
<defs>
<filter id="filter0_d_254_1661" x="0" y="108" width="567" height="567" filterUnits="userSpaceOnUse" color-interpolation-filters="sRGB">
<feFlood flood-opacity="0" result="BackgroundImageFix"/>
<feColorMatrix in="SourceAlpha" type="matrix" values="0 0 0 0 0 0 0 0 0 0 0 0 0 0 0 0 0 0 127 0" result="hardAlpha"/>
<feOffset/>
<feGaussianBlur stdDeviation="20"/>
<feComposite in2="hardAlpha" operator="out"/>
<feColorMatrix type="matrix" values="0 0 0 0 0.960784 0 0 0 0 0.960784 0 0 0 0 0.960784 0 0 0 0.43 0"/>
<feBlend mode="normal" in2="BackgroundImageFix" result="effect1_dropShadow_254_1661"/>
<feBlend mode="normal" in="SourceGraphic" in2="effect1_dropShadow_254_1661" result="shape"/>
</filter>
<linearGradient id="paint0_linear_254_1661" x1="723.9" y1="213" x2="723.9" y2="558.457" gradientUnits="userSpaceOnUse">
<stop stop-color="#3113F1"/>
<stop offset="1" stop-color="#883DF2"/>
</linearGradient>
<linearGradient id="paint1_linear_254_1661" x1="723.136" y1="275.671" x2="723.136" y2="483.557" gradientUnits="userSpaceOnUse">
<stop stop-color="#883DF2"/>
<stop offset="1" stop-color="#3113F1"/>
</linearGradient>
<linearGradient id="paint2_linear_254_1661" x1="584.171" y1="0" x2="584.171" y2="224" gradientUnits="userSpaceOnUse">
<stop stop-color="#3113F1"/>
<stop offset="1" stop-color="#883DF2"/>
</linearGradient>
<linearGradient id="paint3_linear_254_1661" x1="584.557" y1="47.1172" x2="584.557" y2="176.883" gradientUnits="userSpaceOnUse">
<stop stop-color="#3113F1"/>
<stop offset="1" stop-color="#3113F1"/>
</linearGradient>
<linearGradient id="paint4_linear_254_1661" x1="283.5" y1="148" x2="283.5" y2="635" gradientUnits="userSpaceOnUse">
<stop stop-color="#3113F1"/>
<stop offset="1" stop-color="#883DF2"/>
</linearGradient>
<linearGradient id="paint5_linear_254_1661" x1="282.422" y1="214.801" x2="282.422" y2="578.973" gradientUnits="userSpaceOnUse">
<stop stop-color="#3113F1"/>
<stop offset="1" stop-color="#883DF2"/>
</linearGradient>
</defs>
</svg>
