<svg width="290" height="290" viewBox="0 0 290 290" fill="none" xmlns="http://www.w3.org/2000/svg">
<mask id="mask0_220_350" style="mask-type:alpha" maskUnits="userSpaceOnUse" x="0" y="0" width="290" height="290">
<circle cx="145" cy="145" r="139" stroke="black" stroke-width="12"/>
<path d="M138.407 222.88V204.811C130.233 203.377 123.529 200.257 118.294 195.453C113.06 190.649 109.295 184.59 107.001 177.276L119.047 172.329C121.485 179.212 124.999 184.339 129.588 187.709C134.177 191.079 139.698 192.764 146.151 192.764C153.035 192.764 158.699 191.044 163.145 187.602C167.591 184.16 169.813 179.428 169.813 173.404C169.813 167.095 167.842 162.219 163.898 158.777C159.954 155.335 152.533 151.822 141.634 148.236C131.309 144.938 123.6 140.564 118.509 135.115C113.418 129.665 110.873 122.853 110.873 114.679C110.873 106.792 113.418 100.195 118.509 94.8889C123.6 89.5828 130.233 86.5713 138.407 85.8542V68H151.314V85.8542C157.767 86.5713 163.324 88.6865 167.985 92.2C172.646 95.7135 176.195 100.195 178.633 105.644L166.587 110.807C164.579 106.218 161.89 102.884 158.52 100.804C155.15 98.725 150.74 97.6853 145.291 97.6853C138.694 97.6853 133.46 99.1911 129.588 102.203C125.716 105.214 123.78 109.301 123.78 114.464C123.78 119.913 125.931 124.323 130.233 127.693C134.535 131.063 142.494 134.541 154.11 138.126C163.862 141.138 171.068 145.476 175.729 151.14C180.39 156.805 182.72 163.94 182.72 172.544C182.72 181.579 180.067 188.857 174.761 194.378C169.455 199.899 161.639 203.448 151.314 205.026V222.88H138.407Z" fill="black"/>
</mask>
<g mask="url(#mask0_220_350)">
<rect width="290" height="296" fill="url(#paint0_linear_220_350)"/>
</g>
<defs>
<linearGradient id="paint0_linear_220_350" x1="145" y1="0" x2="145" y2="296" gradientUnits="userSpaceOnUse">
<stop stop-color="#3113F1"/>
<stop offset="1" stop-color="#883DF2"/>
</linearGradient>
</defs>
</svg>
