<svg width="101" height="192" viewBox="0 0 101 192" fill="none" xmlns="http://www.w3.org/2000/svg">
<path fill-rule="evenodd" clip-rule="evenodd" d="M10.7819 101.173L46.4213 21.4398L46.4213 93.1258L10.7819 101.173ZM15.8054 107.215L50.3829 116.199L84.3631 107.37L50.8948 99.2919L15.8054 107.215ZM90.1605 101.569L53.4213 19.3747L53.4213 92.7007L90.1605 101.569ZM54.0347 2.36771C52.6236 -0.789239 48.1422 -0.789238 46.7311 2.36772L0.350153 106.133C-0.659164 108.391 0.602201 111.014 2.99611 111.636L49.377 123.686C50.0366 123.858 50.7291 123.858 51.3887 123.686L97.7696 111.636C100.164 111.014 101.425 108.391 100.416 106.133L54.0347 2.36771ZM53.4215 176.958L85.0892 128.507L53.6496 137.583C53.5737 137.605 53.4977 137.626 53.4216 137.647L53.4215 176.958ZM46.4215 175.311L15.8309 128.507L46.4216 137.338L46.4215 175.311ZM47.1118 190.075C48.6905 192.49 52.2295 192.49 53.8083 190.075L96.5259 124.718C98.5552 121.613 95.6319 117.658 92.0682 118.687L51.5694 130.378C50.8446 130.587 50.0754 130.587 49.3506 130.378L8.85182 118.687C5.28813 117.658 2.36483 121.613 4.39417 124.718L47.1118 190.075Z" fill="#3113F1"/>
</svg>
