<svg width="118" height="185" viewBox="0 0 118 185" fill="none" xmlns="http://www.w3.org/2000/svg">
<path fill-rule="evenodd" clip-rule="evenodd" d="M53.0001 28.4815L14.3578 114.139L53.0001 120.448V28.4815ZM65.0001 28.4815V120.448L103.642 114.139L65.0001 28.4815ZM59.0001 171.409L20.9283 126.357L56.5025 132.165C58.1566 132.435 59.8435 132.435 61.4976 132.165L97.0718 126.357L59.0001 171.409ZM68.1154 6.2057C64.5739 -1.64471 53.4263 -1.64473 49.8847 6.20568L1.59376 113.251C0.00907874 116.763 0.583827 120.874 3.07118 123.817L51.3621 180.962C55.357 185.689 62.6432 185.689 66.638 180.962L114.929 123.817C117.416 120.874 117.991 116.763 116.406 113.251L68.1154 6.2057Z" fill="black"/>
</svg>
