<svg width="181" height="181" viewBox="0 0 181 181" fill="none" xmlns="http://www.w3.org/2000/svg">
<mask id="mask0_176_215" style="mask-type:alpha" maskUnits="userSpaceOnUse" x="0" y="0" width="181" height="181">
<circle cx="90.5" cy="90.5" r="84.5" stroke="black" stroke-width="12"/>
<path d="M86.385 139.108V127.83C81.2832 126.935 77.0988 124.988 73.8318 121.99C70.5648 118.991 68.2153 115.21 66.7832 110.645L74.3017 107.557C75.8233 111.853 78.0162 115.053 80.8804 117.157C83.7446 119.26 87.1906 120.312 91.2183 120.312C95.5146 120.312 99.0501 119.238 101.825 117.089C104.599 114.941 105.987 111.988 105.987 108.228C105.987 104.29 104.756 101.247 102.295 99.0987C99.8333 96.9506 95.2014 94.7577 88.3989 92.52C81.9545 90.4614 77.1435 87.7314 73.9661 84.3302C70.7886 80.929 69.1999 76.6775 69.1999 71.5756C69.1999 66.6528 70.7886 62.5355 73.9661 59.2238C77.1435 55.9121 81.2832 54.0324 86.385 53.5849V42.4414H94.4406V53.5849C98.4683 54.0324 101.937 55.3526 104.846 57.5455C107.755 59.7384 109.97 62.5355 111.491 65.9367L103.973 69.1589C102.72 66.2948 101.042 64.2137 98.9382 62.9159C96.8348 61.6181 94.0825 60.9691 90.6813 60.9691C86.564 60.9691 83.2971 61.909 80.8804 63.7886C78.4637 65.6682 77.2554 68.2191 77.2554 71.4414C77.2554 74.8426 78.598 77.5949 81.2832 79.6983C83.9684 81.8017 88.9359 83.9722 96.1859 86.2098C102.272 88.0895 106.77 90.797 109.679 94.3325C112.588 97.868 114.042 102.321 114.042 107.691C114.042 113.33 112.387 117.873 109.075 121.319C105.763 124.765 100.885 126.98 94.4406 127.964V139.108H86.385Z" fill="black"/>
</mask>
<g mask="url(#mask0_176_215)">
<rect width="181" height="184.745" fill="url(#paint0_linear_176_215)"/>
</g>
<defs>
<linearGradient id="paint0_linear_176_215" x1="90.5" y1="0" x2="90.5" y2="184.745" gradientUnits="userSpaceOnUse">
<stop stop-color="#3113F1"/>
<stop offset="1" stop-color="#883DF2"/>
</linearGradient>
</defs>
</svg>
