<svg width="181" height="181" viewBox="0 0 181 181" fill="none" xmlns="http://www.w3.org/2000/svg">
<mask id="mask0_174_180" style="mask-type:alpha" maskUnits="userSpaceOnUse" x="0" y="0" width="181" height="181">
<circle cx="90.5" cy="90.5" r="84.5" stroke="black" stroke-width="12"/>
<path d="M56.2112 87.2815C54.2932 87.2815 52.663 86.6103 51.3205 85.2677C49.9779 83.9252 49.3066 82.2949 49.3066 80.377V56.2112C49.3066 54.2932 49.9779 52.663 51.3205 51.3205C52.663 49.9779 54.2932 49.3066 56.2112 49.3066H80.377C82.2949 49.3066 83.9252 49.9779 85.2677 51.3205C86.6103 52.663 87.2815 54.2932 87.2815 56.2112V80.377C87.2815 82.2949 86.6103 83.9252 85.2677 85.2677C83.9252 86.6103 82.2949 87.2815 80.377 87.2815H56.2112ZM56.2112 132.161C54.2932 132.161 52.663 131.49 51.3205 130.147C49.9779 128.805 49.3066 127.174 49.3066 125.256V101.091C49.3066 99.1727 49.9779 97.5424 51.3205 96.1999C52.663 94.8573 54.2932 94.1861 56.2112 94.1861H80.377C82.2949 94.1861 83.9252 94.8573 85.2677 96.1999C86.6103 97.5424 87.2815 99.1727 87.2815 101.091V125.256C87.2815 127.174 86.6103 128.805 85.2677 130.147C83.9252 131.49 82.2949 132.161 80.377 132.161H56.2112ZM101.091 87.2815C99.1727 87.2815 97.5424 86.6103 96.1999 85.2677C94.8573 83.9252 94.1861 82.2949 94.1861 80.377V56.2112C94.1861 54.2932 94.8573 52.663 96.1999 51.3205C97.5424 49.9779 99.1727 49.3066 101.091 49.3066H125.256C127.174 49.3066 128.805 49.9779 130.147 51.3205C131.49 52.663 132.161 54.2932 132.161 56.2112V80.377C132.161 82.2949 131.49 83.9252 130.147 85.2677C128.805 86.6103 127.174 87.2815 125.256 87.2815H101.091ZM101.091 132.161C99.1727 132.161 97.5424 131.49 96.1999 130.147C94.8573 128.805 94.1861 127.174 94.1861 125.256V101.091C94.1861 99.1727 94.8573 97.5424 96.1999 96.1999C97.5424 94.8573 99.1727 94.1861 101.091 94.1861H125.256C127.174 94.1861 128.805 94.8573 130.147 96.1999C131.49 97.5424 132.161 99.1727 132.161 101.091V125.256C132.161 127.174 131.49 128.805 130.147 130.147C128.805 131.49 127.174 132.161 125.256 132.161H101.091ZM56.2112 80.377H80.377V56.2112H56.2112V80.377ZM101.091 80.377H125.256V56.2112H101.091V80.377ZM101.091 125.256H125.256V101.091H101.091V125.256ZM56.2112 125.256H80.377V101.091H56.2112V125.256Z" fill="black"/>
</mask>
<g mask="url(#mask0_174_180)">
<rect width="181" height="184.745" fill="url(#paint0_linear_174_180)"/>
</g>
<defs>
<linearGradient id="paint0_linear_174_180" x1="90.5" y1="0" x2="90.5" y2="184.745" gradientUnits="userSpaceOnUse">
<stop stop-color="#3113F1"/>
<stop offset="1" stop-color="#883DF2"/>
</linearGradient>
</defs>
</svg>
