<svg width="181" height="181" viewBox="0 0 181 181" fill="none" xmlns="http://www.w3.org/2000/svg">
<mask id="mask0_174_193" style="mask-type:alpha" maskUnits="userSpaceOnUse" x="0" y="0" width="181" height="181">
<circle cx="90.5" cy="90.5" r="84.5" stroke="black" stroke-width="12"/>
<path d="M90.4999 42.4414C96.5606 42.4414 101.72 44.5703 105.978 48.8281C110.235 53.0859 112.364 58.2451 112.364 64.3057V75.353H120.42C122.337 75.353 123.968 76.0243 125.31 77.3668C126.653 78.7093 127.324 80.3396 127.324 82.2575V132.2C127.324 134.118 126.653 135.748 125.31 137.091C123.968 138.433 122.337 139.105 120.42 139.105H60.5803C58.6624 139.105 57.0321 138.433 55.6896 137.091C54.3471 135.748 53.6758 134.118 53.6758 132.2V82.2575C53.6758 80.3396 54.3471 78.7093 55.6896 77.3668C57.0321 76.0243 58.6624 75.353 60.5803 75.353H68.6356V64.3057C68.6356 58.2451 70.7645 53.0859 75.0223 48.8281C79.2801 44.5703 84.4393 42.4414 90.4999 42.4414ZM90.4999 49.3459C86.3572 49.3459 82.8282 50.8036 79.913 53.7188C76.9977 56.634 75.5401 60.163 75.5401 64.3057V75.353H105.46V64.3057C105.46 60.163 104.002 56.634 101.087 53.7188C98.1716 50.8036 94.6426 49.3459 90.4999 49.3459ZM60.5803 132.2H120.42V82.2575H60.5803V132.2ZM90.4999 98.3681C88.045 98.3681 85.9544 99.3078 84.2283 101.187C82.5022 103.067 81.6391 105.158 81.6391 107.459C81.6391 109.837 82.5022 111.87 84.2283 113.558C85.9544 115.246 88.045 116.09 90.4999 116.09C92.9549 116.09 95.0454 115.246 96.7715 113.558C98.4977 111.87 99.3607 109.837 99.3607 107.459C99.3607 105.158 98.4977 103.067 96.7715 101.187C95.0454 99.3078 92.9549 98.3681 90.4999 98.3681ZM60.5803 82.2575V132.2V82.2575Z" fill="white"/>
</mask>
<g mask="url(#mask0_174_193)">
<rect width="181" height="184.745" fill="url(#paint0_linear_174_193)"/>
</g>
<defs>
<linearGradient id="paint0_linear_174_193" x1="90.5" y1="0" x2="90.5" y2="184.745" gradientUnits="userSpaceOnUse">
<stop stop-color="#3113F1"/>
<stop offset="1" stop-color="#883DF2"/>
</linearGradient>
</defs>
</svg>
