<svg width="1257" height="220" viewBox="0 0 1257 220" fill="none" xmlns="http://www.w3.org/2000/svg">
<path d="M250.4 200.623V75.823H210V60.623H307.4V75.823H266.2V200.623H250.4ZM427.18 200.623V60.623H442.98V200.623H427.18ZM333.58 200.623V60.623H349.38V200.623H333.58ZM340.58 138.423V123.223H434.38V138.423H340.58ZM483.775 200.623V60.623H568.575V75.823H499.575V185.423H568.175V200.623H483.775ZM491.175 136.223V121.023H557.375V136.223H491.175ZM646.906 202.623C633.04 202.623 621.306 200.223 611.706 195.423C602.24 190.49 594.106 183.556 587.306 174.623L608.106 151.223C614.64 160.156 621.24 166.156 627.906 169.223C634.573 172.29 641.44 173.823 648.506 173.823C652.106 173.823 655.306 173.356 658.106 172.423C661.04 171.49 663.306 170.156 664.906 168.423C666.64 166.556 667.506 164.356 667.506 161.823C667.506 159.823 666.973 158.023 665.906 156.423C664.973 154.823 663.64 153.423 661.906 152.223C660.173 151.023 658.173 149.956 655.906 149.023C653.64 147.956 651.106 147.09 648.306 146.423C645.64 145.756 642.906 145.156 640.106 144.623C632.373 143.023 625.64 140.956 619.906 138.423C614.306 135.756 609.573 132.623 605.706 129.023C601.973 125.29 599.173 121.09 597.306 116.423C595.44 111.623 594.506 106.223 594.506 100.223C594.506 91.6897 596.906 84.223 601.706 77.823C606.64 71.423 613.106 66.423 621.106 62.823C629.106 59.223 637.773 57.423 647.106 57.423C660.706 57.423 671.64 59.623 679.906 64.023C688.306 68.2897 694.973 74.223 699.906 81.823L678.706 102.423C674.573 97.0897 669.84 93.0897 664.506 90.423C659.306 87.7564 653.84 86.423 648.106 86.423C644.24 86.423 640.84 86.8897 637.906 87.823C634.973 88.7564 632.706 90.1564 631.106 92.023C629.64 93.7564 628.906 95.8897 628.906 98.423C628.906 100.556 629.506 102.49 630.706 104.223C632.04 105.823 633.84 107.223 636.106 108.423C638.373 109.623 640.973 110.69 643.906 111.623C646.84 112.423 649.906 113.09 653.106 113.623C660.44 115.09 667.04 117.023 672.906 119.423C678.906 121.823 684.04 124.823 688.306 128.423C692.573 131.89 695.84 136.023 698.106 140.823C700.506 145.49 701.706 150.89 701.706 157.023C701.706 166.623 699.373 174.823 694.706 181.623C690.04 188.423 683.573 193.623 675.306 197.223C667.04 200.823 657.573 202.623 646.906 202.623ZM727.259 200.623V60.623H824.859V89.823H760.659V171.423H827.059V200.623H727.259ZM743.459 143.423V115.423H816.059V143.423H743.459ZM856.166 200.623V60.623H953.766V89.823H889.566V171.423H955.966V200.623H856.166ZM872.366 143.423V115.423H944.966V143.423H872.366ZM985.072 200.623V60.623H1044.07C1054.34 60.623 1063.74 62.3564 1072.27 65.823C1080.81 69.1564 1088.14 73.9564 1094.27 80.223C1100.41 86.3564 1105.14 93.7564 1108.47 102.423C1111.81 110.956 1113.47 120.356 1113.47 130.623C1113.47 141.023 1111.81 150.49 1108.47 159.023C1105.14 167.556 1100.41 174.956 1094.27 181.223C1088.14 187.356 1080.81 192.156 1072.27 195.623C1063.87 198.956 1054.47 200.623 1044.07 200.623H985.072ZM1019.27 177.023L1014.87 170.423H1043.07C1048.54 170.423 1053.47 169.49 1057.87 167.623C1062.27 165.756 1066.01 163.09 1069.07 159.623C1072.27 156.023 1074.67 151.823 1076.27 147.023C1078.01 142.09 1078.87 136.623 1078.87 130.623C1078.87 124.623 1078.01 119.223 1076.27 114.423C1074.67 109.49 1072.27 105.29 1069.07 101.823C1066.01 98.223 1062.27 95.4897 1057.87 93.623C1053.47 91.7564 1048.54 90.823 1043.07 90.823H1014.27L1019.27 84.623V177.023Z" fill="white"/>
<path d="M87.896 29.7299L163.404 73.326C165.956 74.8017 167.536 77.5276 167.536 80.4791V138.651C167.536 145.04 160.591 149.007 155.087 145.769L138.359 135.933C135.772 134.414 132.56 134.414 129.973 135.933L103.713 151.42C101.161 152.922 97.9921 152.948 95.4225 151.481L54.1008 127.869C51.5312 126.402 49.9426 123.659 49.9426 120.698V90.3147C49.9426 87.3892 48.3974 84.6807 45.8712 83.1963L28.9432 73.2305C23.4915 70.0185 23.5263 62.1275 29.004 58.9589L79.6404 29.7299C82.1926 28.2541 85.3438 28.2541 87.896 29.7299Z" fill="url(#paint0_linear_132_6)"/>
<path d="M134.174 153.418L155.034 165.311C160.573 168.471 160.599 176.449 155.069 179.635L87.8953 218.422C85.3431 219.898 82.1919 219.898 79.6397 218.422L4.13217 174.826C1.57995 173.35 0 170.624 0 167.673V89.8647C0 83.5449 6.8146 79.569 12.3184 82.6768L29.8974 92.5992C32.4323 94.0316 34.0296 96.6966 34.0904 99.6048L34.7675 129.632C34.8369 132.558 36.4429 135.232 39.0038 136.664L100.926 171.154" fill="url(#paint1_linear_132_6)"/>
<defs>
<linearGradient id="paint0_linear_132_6" x1="96.2054" y1="28.623" x2="96.2054" y2="152.564" gradientUnits="userSpaceOnUse">
<stop stop-color="#3113F1"/>
<stop offset="1" stop-color="#883DF2"/>
</linearGradient>
<linearGradient id="paint1_linear_132_6" x1="79.6012" y1="81.5977" x2="79.6012" y2="219.529" gradientUnits="userSpaceOnUse">
<stop stop-color="#3113F1"/>
<stop offset="1" stop-color="#883DF2"/>
</linearGradient>
</defs>
</svg>
