<svg width="586" height="625" viewBox="0 0 586 625" fill="none" xmlns="http://www.w3.org/2000/svg">
<path id="logo-degrade" d="M585.973 166.096C585.973 143.518 567.688 125.225 545.12 125.225C522.552 125.225 504.267 143.518 504.267 166.096C504.267 180.854 512.111 193.71 523.81 200.914L523.516 274.756L440.337 226.974V128.278C452.062 121.1 459.907 108.218 459.907 93.4601C459.907 70.8818 441.622 52.5889 419.053 52.5889C396.485 52.5889 378.2 70.8818 378.2 93.4601C378.2 108.244 386.071 121.154 397.85 128.332V239.268C397.85 246.874 401.92 253.892 408.505 257.695L523.301 323.662L523.89 445.392L314.243 566.907V372.461L356.007 348.329V275.479L314.243 251.347V21.2525C314.243 13.6728 310.174 6.65563 303.615 2.85241C297.056 -0.950804 288.944 -0.950804 282.385 2.85241L30.0108 148.473C23.425 152.276 19.3825 159.293 19.3825 166.9L19.4628 308.556C19.1148 310.779 19.1148 313.002 19.4628 315.198L19.5164 423.081C7.81726 430.259 0 443.142 0 457.873C0 480.451 18.2849 498.744 40.8532 498.744C63.4215 498.744 81.7064 480.451 81.7064 457.873C81.7064 443.062 73.8089 430.125 62.0027 422.974V348.811L145.824 397.209L145.744 495.932C133.991 503.11 126.12 516.019 126.12 530.803C126.12 553.382 144.405 571.675 166.973 571.675C189.542 571.675 207.827 553.382 207.827 530.803C207.827 516.046 199.983 503.136 188.257 495.958L188.337 384.969C188.337 377.362 184.295 370.345 177.709 366.542L61.9759 299.744L61.9223 179.193L271.757 58.0259V251.294L229.913 275.479V348.329L271.784 372.514V603.761C271.784 611.367 275.853 618.385 282.439 622.161C285.732 624.063 289.372 625 293.04 625C296.708 625 300.402 624.036 303.695 622.134L555.855 475.978C562.441 472.148 566.484 465.104 566.457 457.498L565.814 323.046V317.957C567.019 313.966 566.992 309.815 565.895 305.958L566.323 200.995C578.102 193.817 586 180.907 586 166.096H585.973Z" fill="url(#paint0_linear_212_209)"/>
<defs>
<linearGradient id="paint0_linear_212_209" x1="293" y1="0" x2="293" y2="625" gradientUnits="userSpaceOnUse">
<stop stop-color="#3113F1"/>
<stop offset="1" stop-color="#883DF2"/>
</linearGradient>
</defs>
</svg>
