<svg width="1789" height="323" viewBox="0 0 1789 323" fill="none" xmlns="http://www.w3.org/2000/svg">
<path d="M376.6 300V112.8H316V90H462.1V112.8H400.3V300H376.6ZM641.77 300V90H665.47V300H641.77ZM501.37 300V90H525.07V300H501.37ZM511.87 206.7V183.9H652.57V206.7H511.87ZM726.663 300V90H853.863V112.8H750.363V277.2H853.263V300H726.663ZM737.763 203.4V180.6H837.063V203.4H737.763ZM971.359 303C950.559 303 932.959 299.4 918.559 292.2C904.359 284.8 892.159 274.4 881.959 261L913.159 225.9C922.959 239.3 932.859 248.3 942.859 252.9C952.859 257.5 963.159 259.8 973.759 259.8C979.159 259.8 983.959 259.1 988.159 257.7C992.559 256.3 995.959 254.3 998.359 251.7C1000.96 248.9 1002.26 245.6 1002.26 241.8C1002.26 238.8 1001.46 236.1 999.859 233.7C998.459 231.3 996.459 229.2 993.859 227.4C991.259 225.6 988.259 224 984.859 222.6C981.459 221 977.659 219.7 973.459 218.7C969.459 217.7 965.359 216.8 961.159 216C949.559 213.6 939.459 210.5 930.859 206.7C922.459 202.7 915.359 198 909.559 192.6C903.959 187 899.759 180.7 896.959 173.7C894.159 166.5 892.759 158.4 892.759 149.4C892.759 136.6 896.359 125.4 903.559 115.8C910.959 106.2 920.659 98.7 932.659 93.3C944.659 87.9 957.659 85.2 971.659 85.2C992.059 85.2 1008.46 88.5 1020.86 95.1C1033.46 101.5 1043.46 110.4 1050.86 121.8L1019.06 152.7C1012.86 144.7 1005.76 138.7 997.759 134.7C989.959 130.7 981.759 128.7 973.159 128.7C967.359 128.7 962.259 129.4 957.859 130.8C953.459 132.2 950.059 134.3 947.659 137.1C945.459 139.7 944.359 142.9 944.359 146.7C944.359 149.9 945.259 152.8 947.059 155.4C949.059 157.8 951.759 159.9 955.159 161.7C958.559 163.5 962.459 165.1 966.859 166.5C971.259 167.7 975.859 168.7 980.659 169.5C991.659 171.7 1001.56 174.6 1010.36 178.2C1019.36 181.8 1027.06 186.3 1033.46 191.7C1039.86 196.9 1044.76 203.1 1048.16 210.3C1051.76 217.3 1053.56 225.4 1053.56 234.6C1053.56 249 1050.06 261.3 1043.06 271.5C1036.06 281.7 1026.36 289.5 1013.96 294.9C1001.56 300.3 987.359 303 971.359 303ZM1091.89 300V90H1238.29V133.8H1141.99V256.2H1241.59V300H1091.89ZM1116.19 214.2V172.2H1225.09V214.2H1116.19ZM1285.25 300V90H1431.65V133.8H1335.35V256.2H1434.95V300H1285.25ZM1309.55 214.2V172.2H1418.45V214.2H1309.55ZM1478.61 300V90H1567.11C1582.51 90 1596.61 92.6 1609.41 97.8C1622.21 102.8 1633.21 110 1642.41 119.4C1651.61 128.6 1658.71 139.7 1663.71 152.7C1668.71 165.5 1671.21 179.6 1671.21 195C1671.21 210.6 1668.71 224.8 1663.71 237.6C1658.71 250.4 1651.61 261.5 1642.41 270.9C1633.21 280.1 1622.21 287.3 1609.41 292.5C1596.81 297.5 1582.71 300 1567.11 300H1478.61ZM1529.91 264.6L1523.31 254.7H1565.61C1573.81 254.7 1581.21 253.3 1587.81 250.5C1594.41 247.7 1600.01 243.7 1604.61 238.5C1609.41 233.1 1613.01 226.8 1615.41 219.6C1618.01 212.2 1619.31 204 1619.31 195C1619.31 186 1618.01 177.9 1615.41 170.7C1613.01 163.3 1609.41 157 1604.61 151.8C1600.01 146.4 1594.41 142.3 1587.81 139.5C1581.21 136.7 1573.81 135.3 1565.61 135.3H1522.41L1529.91 126V264.6Z" fill="white"/>
<path fill-rule="evenodd" clip-rule="evenodd" d="M248.976 95.0478C259.283 95.0478 267.635 103.391 267.635 113.69H267.647C267.647 120.445 264.04 126.333 258.66 129.607L258.464 177.482C258.966 179.241 258.978 181.134 258.428 182.955V185.276L258.721 246.6C258.733 250.07 256.887 253.282 253.879 255.029L138.708 321.692C137.204 322.56 135.517 323 133.842 323C132.167 323 130.504 322.572 129 321.705C125.992 319.982 124.133 316.782 124.133 313.312V207.839L105.01 196.808V163.58L105.677 163.194L105.06 164.044L112.998 169.816V181.407V184.217L115.398 185.678L136.084 198.271L138.487 199.734L140.985 198.439L152.545 192.445L161.246 197.589L143.526 207.814V296.503L239.279 241.079L239.01 185.557L186.579 155.468C183.571 153.734 181.712 150.533 181.712 147.064V96.4649C176.332 93.191 172.737 87.3028 172.737 80.5596C172.737 70.2614 181.089 61.9179 191.397 61.9179C201.704 61.9179 210.056 70.2614 210.056 80.5596C210.056 87.2906 206.473 93.1665 201.117 96.4405V141.457L239.108 163.25L239.243 129.57C233.899 126.284 230.317 120.421 230.317 113.69C230.317 103.391 238.668 95.0478 248.976 95.0478ZM162.601 186.773V163.58L143.526 152.573V47.6251C143.526 44.1679 141.667 40.9673 138.672 39.2327C135.676 37.498 131.971 37.498 128.975 39.2327L13.707 105.651C10.699 107.386 8.85269 110.587 8.85269 114.056L8.88937 178.667C8.73041 179.681 8.73041 180.695 8.88937 181.696L8.91383 230.903C3.57042 234.177 0 240.052 0 246.771C0 257.069 8.35136 265.413 18.6591 265.413C28.9669 265.413 37.3182 257.069 37.3182 246.771C37.3182 240.016 33.7111 234.115 28.3188 230.854V197.027L66.603 219.102L66.5663 264.13C61.1985 267.404 57.6036 273.292 57.6036 280.036C57.6036 290.334 65.955 298.677 76.2627 298.677C86.5705 298.677 94.9218 290.334 94.9218 280.036C94.9218 273.305 91.3392 267.416 85.9836 264.143L86.0202 213.519C86.0202 210.05 84.1739 206.849 81.1659 205.115L28.3066 174.648L28.2821 119.663L124.121 64.3977V152.549L114.161 158.298L120.938 163.225L122.998 164.723V167.269V178.598L138.88 188.266L150.402 182.292L152.862 181.016L155.248 182.427L162.601 186.773Z" fill="#672DF1"/>
</svg>
