<svg width="290" height="296" viewBox="0 0 290 296" fill="none" xmlns="http://www.w3.org/2000/svg">
<mask id="mask0_45_90" style="mask-type:alpha" maskUnits="userSpaceOnUse" x="0" y="0" width="290" height="290">
<circle cx="145" cy="145" r="139" stroke="black" stroke-width="12"/>
<path d="M192.469 209.616C190.379 209.616 188.382 209.216 186.477 208.417C184.571 207.618 182.82 206.42 181.222 204.822L140.106 163.338C137.279 164.321 134.452 165.12 131.625 165.734C128.798 166.349 125.909 166.656 122.959 166.656C111.036 166.656 100.896 162.508 92.5375 154.211C84.1792 145.914 80 135.804 80 123.881C80 120.071 80.4917 116.353 81.475 112.727C82.4583 109.101 83.8719 105.69 85.7156 102.494L112.45 129.228L129.413 113.372L101.941 85.9C105.136 84.0562 108.517 82.612 112.081 81.5672C115.646 80.5224 119.272 80 122.959 80C135.128 80 145.484 84.2714 154.027 92.8141C162.569 101.357 166.841 111.712 166.841 123.881C166.841 126.831 166.533 129.72 165.919 132.547C165.304 135.374 164.505 138.201 163.522 141.028L204.269 181.775C205.867 183.373 207.065 185.186 207.864 187.214C208.663 189.242 209.062 191.362 209.062 193.575C209.062 195.787 208.632 197.908 207.772 199.936C206.911 201.964 205.621 203.716 203.9 205.191C202.179 206.666 200.366 207.772 198.461 208.509C196.556 209.247 194.558 209.616 192.469 209.616ZM189.15 197.078C190.133 198.061 191.363 198.553 192.838 198.553C194.313 198.553 195.542 198.061 196.525 197.078C197.508 196.095 198 194.866 198 193.391C198 191.916 197.508 190.686 196.525 189.703L149.878 143.056C151.845 140.475 153.32 137.433 154.303 133.93C155.286 130.427 155.778 127.077 155.778 123.881C155.778 114.662 152.367 106.857 145.545 100.466C138.723 94.074 130.949 90.8167 122.222 90.6937L140.844 109.684C141.95 110.791 142.503 112.143 142.503 113.741C142.503 115.339 141.95 116.691 140.844 117.797L116.506 140.659C115.4 141.766 114.048 142.319 112.45 142.319C110.852 142.319 109.5 141.766 108.394 140.659L90.5094 122.959C90.8781 132.424 94.2276 140.229 100.558 146.375C106.888 152.521 114.355 155.594 122.959 155.594C126.032 155.594 129.29 155.102 132.731 154.119C136.173 153.135 139.184 151.66 141.766 149.694L189.15 197.078Z" fill="black"/>
</mask>
<g mask="url(#mask0_45_90)">
<rect width="290" height="296" fill="url(#paint0_linear_45_90)"/>
</g>
<defs>
<linearGradient id="paint0_linear_45_90" x1="145" y1="0" x2="145" y2="296" gradientUnits="userSpaceOnUse">
<stop stop-color="#3113F1"/>
<stop offset="1" stop-color="#883DF2"/>
</linearGradient>
</defs>
</svg>
