<svg width="181" height="181" viewBox="0 0 181 181" fill="none" xmlns="http://www.w3.org/2000/svg">
<mask id="mask0_174_186" style="mask-type:alpha" maskUnits="userSpaceOnUse" x="0" y="0" width="181" height="181">
<circle cx="90.5" cy="90.5" r="84.5" stroke="black" stroke-width="12"/>
<path d="M120.127 130.83C118.822 130.83 117.576 130.58 116.387 130.082C115.198 129.583 114.104 128.835 113.107 127.838L87.4453 101.946C85.6808 102.559 83.9163 103.058 82.1518 103.442C80.3873 103.825 78.5844 104.017 76.7432 104.017C69.3017 104.017 62.9725 101.428 57.7558 96.2495C52.539 91.0711 49.9307 84.7611 49.9307 77.3196C49.9307 74.9414 50.2375 72.6207 50.8513 70.3575C51.465 68.0944 52.3472 65.9655 53.498 63.9708L70.1839 80.6568L80.7709 70.7603L63.6246 53.6141C65.6193 52.4633 67.729 51.5619 69.9538 50.9098C72.1786 50.2577 74.4417 49.9316 76.7432 49.9316C84.3382 49.9316 90.8016 52.5976 96.1335 57.9294C101.465 63.2612 104.131 69.7246 104.131 77.3196C104.131 79.1608 103.939 80.9636 103.556 82.7281C103.172 84.4926 102.674 86.2571 102.06 88.0216L127.492 113.453C128.489 114.451 129.237 115.582 129.735 116.848C130.234 118.114 130.483 119.437 130.483 120.818C130.483 122.199 130.215 123.522 129.678 124.788C129.141 126.054 128.335 127.147 127.261 128.068C126.187 128.988 125.056 129.679 123.867 130.139C122.678 130.6 121.431 130.83 120.127 130.83ZM118.055 123.005C118.669 123.618 119.436 123.925 120.357 123.925C121.277 123.925 122.045 123.618 122.658 123.005C123.272 122.391 123.579 121.624 123.579 120.703C123.579 119.782 123.272 119.015 122.658 118.402L93.5443 89.2874C94.7717 87.6764 95.6923 85.7776 96.3061 83.5912C96.9198 81.4048 97.2267 79.3142 97.2267 77.3196C97.2267 71.5658 95.0978 66.6943 90.84 62.705C86.5822 58.7157 81.7298 56.6827 76.2829 56.606L87.9056 68.4588C88.596 69.1492 88.9412 69.9931 88.9412 70.9904C88.9412 71.9878 88.596 72.8317 87.9056 73.5221L72.7156 87.7915C72.0251 88.4819 71.1813 88.8271 70.1839 88.8271C69.1866 88.8271 68.3427 88.4819 67.6523 87.7915L56.49 76.7442C56.7201 82.6514 58.8107 87.5229 62.7616 91.3588C66.7125 95.1946 71.3731 97.1126 76.7432 97.1126C78.6612 97.1126 80.6942 96.8057 82.8422 96.192C84.9903 95.5782 86.8699 94.6576 88.4809 93.4302L118.055 123.005Z" fill="black"/>
</mask>
<g mask="url(#mask0_174_186)">
<rect width="181" height="184.745" fill="url(#paint0_linear_174_186)"/>
</g>
<defs>
<linearGradient id="paint0_linear_174_186" x1="90.5" y1="0" x2="90.5" y2="184.745" gradientUnits="userSpaceOnUse">
<stop stop-color="#3113F1"/>
<stop offset="1" stop-color="#883DF2"/>
</linearGradient>
</defs>
</svg>
