<svg width="290" height="296" viewBox="0 0 290 296" fill="none" xmlns="http://www.w3.org/2000/svg">
<mask id="mask0_44_27" style="mask-type:alpha" maskUnits="userSpaceOnUse" x="0" y="0" width="290" height="290">
<circle cx="145" cy="145" r="139" stroke="black" stroke-width="12"/>
<path d="M83.3656 203.947C82.1365 202.718 81.5219 201.304 81.5219 199.706C81.5219 198.108 82.1365 196.695 83.3656 195.466L130.566 148.266C131.18 147.651 131.795 147.221 132.409 146.975C133.024 146.729 133.7 146.606 134.438 146.606C135.175 146.606 135.851 146.729 136.466 146.975C137.08 147.221 137.695 147.651 138.309 148.266L163.938 174.078L215.194 116.738C216.177 115.631 217.437 115.017 218.973 114.894C220.51 114.771 221.831 115.263 222.938 116.369C223.921 117.352 224.443 118.581 224.505 120.056C224.566 121.531 224.105 122.822 223.122 123.928L167.809 186.247C167.195 186.861 166.58 187.322 165.966 187.63C165.351 187.937 164.675 188.091 163.938 188.091C163.2 188.091 162.463 187.998 161.725 187.814C160.987 187.63 160.311 187.23 159.697 186.616L134.438 161.356L91.8469 203.947C90.6177 205.176 89.2042 205.791 87.6063 205.791C86.0083 205.791 84.5948 205.176 83.3656 203.947ZM82.2594 147.897C81.7677 147.897 81.276 147.774 80.7844 147.528C80.2927 147.282 79.924 146.852 79.6781 146.238L76.5438 139.416L69.7219 136.281C69.1073 136.035 68.6771 135.667 68.4312 135.175C68.1854 134.683 68.0625 134.192 68.0625 133.7C68.0625 133.208 68.1854 132.717 68.4312 132.225C68.6771 131.733 69.1073 131.365 69.7219 131.119L76.5438 127.984L79.6781 121.162C79.924 120.548 80.2927 120.118 80.7844 119.872C81.276 119.626 81.7677 119.503 82.2594 119.503C82.751 119.503 83.2427 119.626 83.7344 119.872C84.226 120.118 84.5948 120.548 84.8406 121.162L87.975 127.984L94.7969 131.119C95.7802 131.61 96.2719 132.471 96.2719 133.7C96.2719 134.929 95.7802 135.79 94.7969 136.281L87.975 139.416L84.8406 146.238C84.5948 146.852 84.226 147.282 83.7344 147.528C83.2427 147.774 82.751 147.897 82.2594 147.897ZM167.625 133.147C167.133 133.147 166.642 133.024 166.15 132.778C165.658 132.532 165.29 132.102 165.044 131.488L161.909 124.666L155.088 121.531C154.473 121.285 154.043 120.917 153.797 120.425C153.551 119.933 153.428 119.442 153.428 118.95C153.428 118.458 153.551 117.967 153.797 117.475C154.043 116.983 154.473 116.615 155.088 116.369L161.909 113.234L165.044 106.412C165.29 105.798 165.658 105.368 166.15 105.122C166.642 104.876 167.133 104.753 167.625 104.753C168.117 104.753 168.608 104.876 169.1 105.122C169.592 105.368 169.96 105.798 170.206 106.412L173.341 113.234L180.163 116.369C180.777 116.615 181.207 116.983 181.453 117.475C181.699 117.967 181.822 118.458 181.822 118.95C181.822 119.442 181.699 119.933 181.453 120.425C181.207 120.917 180.777 121.285 180.163 121.531L173.341 124.666L170.206 131.488C169.96 132.102 169.592 132.532 169.1 132.778C168.608 133.024 168.117 133.147 167.625 133.147ZM117.844 110.838C117.352 110.838 116.86 110.715 116.369 110.469C115.877 110.223 115.508 109.793 115.263 109.178L111.022 99.9594L101.803 95.7188C101.189 95.4729 100.758 95.1042 100.513 94.6125C100.267 94.1208 100.144 93.6292 100.144 93.1375C100.144 92.6458 100.267 92.1542 100.513 91.6625C100.758 91.1708 101.189 90.8021 101.803 90.5563L111.022 86.3156L115.263 77.0969C115.508 76.4823 115.877 76.0521 116.369 75.8062C116.86 75.5604 117.352 75.4375 117.844 75.4375C118.335 75.4375 118.827 75.5604 119.319 75.8062C119.81 76.0521 120.179 76.4823 120.425 77.0969L124.666 86.3156L133.884 90.5563C134.499 90.8021 134.929 91.1708 135.175 91.6625C135.421 92.1542 135.544 92.6458 135.544 93.1375C135.544 93.6292 135.421 94.1208 135.175 94.6125C134.929 95.1042 134.499 95.4729 133.884 95.7188L124.666 99.9594L120.425 109.178C120.179 109.793 119.81 110.223 119.319 110.469C118.827 110.715 118.335 110.838 117.844 110.838Z" fill="white"/>
</mask>
<g mask="url(#mask0_44_27)">
<rect width="290" height="296" fill="url(#paint0_linear_44_27)"/>
</g>
<defs>
<linearGradient id="paint0_linear_44_27" x1="145" y1="0" x2="145" y2="296" gradientUnits="userSpaceOnUse">
<stop stop-color="#3113F1"/>
<stop offset="1" stop-color="#883DF2"/>
</linearGradient>
</defs>
</svg>
