<svg width="290" height="296" viewBox="0 0 290 296" fill="none" xmlns="http://www.w3.org/2000/svg">
<mask id="mask0_321_266" style="mask-type:alpha" maskUnits="userSpaceOnUse" x="0" y="3" width="290" height="290">
<circle cx="145" cy="148" r="139" stroke="black" stroke-width="12"/>
<path d="M132.884 191.333C144.899 191.333 155.112 187.12 163.523 178.694C171.934 170.269 176.14 160.037 176.14 148C176.14 135.963 171.934 125.731 163.523 117.306C155.112 108.88 144.899 104.667 132.884 104.667C120.868 104.667 110.655 108.88 102.244 117.306C93.8333 125.731 89.6279 135.963 89.6279 148C89.6279 160.037 93.8333 170.269 102.244 178.694C110.655 187.12 120.868 191.333 132.884 191.333ZM129.279 180.319C126.155 180.079 123.211 179.356 120.448 178.153C117.684 176.949 115.101 175.324 112.698 173.278L129.279 156.667V180.319ZM136.488 180.319V156.667L153.07 173.278C150.667 175.083 148.083 176.618 145.32 177.882C142.556 179.146 139.612 179.958 136.488 180.319ZM158.116 168.222L141.535 151.611H165.326C165.085 154.741 164.304 157.69 162.983 160.458C161.661 163.227 160.039 165.815 158.116 168.222ZM141.535 144.389L158.116 127.778C160.159 130.185 161.781 132.773 162.983 135.542C164.184 138.31 164.905 141.259 165.145 144.389H141.535ZM136.488 139.333V115.681C139.612 115.921 142.556 116.674 145.32 117.938C148.083 119.201 150.667 120.796 153.07 122.722L136.488 139.333ZM132.884 153.417C131.322 153.417 130.03 152.905 129.009 151.882C127.987 150.859 127.477 149.565 127.477 148C127.477 146.435 127.987 145.141 129.009 144.118C130.03 143.095 131.322 142.583 132.884 142.583C134.446 142.583 135.737 143.095 136.759 144.118C137.78 145.141 138.291 146.435 138.291 148C138.291 149.565 137.78 150.859 136.759 151.882C135.737 152.905 134.446 153.417 132.884 153.417ZM129.279 139.333L112.698 122.722C115.101 120.676 117.684 119.021 120.448 117.757C123.211 116.493 126.155 115.801 129.279 115.681V139.333ZM100.622 144.389C100.862 141.259 101.613 138.31 102.875 135.542C104.137 132.773 105.729 130.185 107.651 127.778L124.233 144.389H100.622ZM107.651 168.222C105.729 165.815 104.167 163.227 102.965 160.458C101.764 157.69 100.983 154.741 100.622 151.611H124.233L107.651 168.222ZM78.814 213C75.9302 213 73.407 211.917 71.2442 209.75C69.0814 207.583 68 205.056 68 202.167V93.8333C68 90.9444 69.0814 88.4167 71.2442 86.25C73.407 84.0833 75.9302 83 78.814 83H212.186C215.07 83 217.593 84.0833 219.756 86.25C221.919 88.4167 223 90.9444 223 93.8333V202.167C223 205.056 221.919 207.583 219.756 209.75C217.593 211.917 215.07 213 212.186 213H78.814ZM78.814 202.167H212.186V93.8333H78.814V202.167Z" fill="black"/>
<path d="M201.462 186.007C200.321 187.15 199.089 187.722 197.767 187.722C196.446 187.722 195.214 187.15 194.073 186.007C192.931 184.863 192.36 183.63 192.36 182.306C192.36 180.62 192.931 179.296 194.073 178.333C195.214 177.37 196.446 176.889 197.767 176.889C199.089 176.889 200.321 177.461 201.462 178.604C202.604 179.748 203.174 180.981 203.174 182.306C203.174 183.63 202.604 184.863 201.462 186.007Z" fill="black"/>
<path d="M201.462 155.493C200.321 156.516 199.089 157.028 197.767 157.028C196.446 157.028 195.214 156.516 194.073 155.493C192.931 154.47 192.36 153.176 192.36 151.611C192.36 149.926 192.931 148.602 194.073 147.639C195.214 146.676 196.446 146.194 197.767 146.194C199.089 146.194 200.321 146.676 201.462 147.639C202.604 148.602 203.174 149.926 203.174 151.611C203.174 153.176 202.604 154.47 201.462 155.493Z" fill="black"/>
<path d="M201.462 124.799C200.321 125.822 199.089 126.333 197.767 126.333C196.446 126.333 195.214 125.822 194.073 124.799C192.931 123.775 192.36 122.481 192.36 120.917C192.36 119.231 192.931 117.907 194.073 116.944C195.214 115.981 196.446 115.5 197.767 115.5C199.089 115.5 200.321 115.981 201.462 116.944C202.604 117.907 203.174 119.231 203.174 120.917C203.174 122.481 202.604 123.775 201.462 124.799Z" fill="black"/>
</mask>
<g mask="url(#mask0_321_266)">
<rect width="290" height="296" fill="url(#paint0_linear_321_266)"/>
</g>
<defs>
<linearGradient id="paint0_linear_321_266" x1="145" y1="0" x2="145" y2="296" gradientUnits="userSpaceOnUse">
<stop stop-color="#3113F1"/>
<stop offset="1" stop-color="#883DF2"/>
</linearGradient>
</defs>
</svg>
