<svg width="903" height="804" viewBox="0 0 903 804" fill="none" xmlns="http://www.w3.org/2000/svg">
<g id="Group 122">
<g id="cash">
<circle id="Ellipse 27" cx="689.9" cy="506.728" r="166.729" stroke="url(#paint0_linear_254_1661)" stroke-width="12"/>
<path id="Vector" d="M687.906 604.557C685.399 604.557 683.327 603.739 681.687 602.102C680.048 600.466 679.229 598.397 679.229 595.895V580.303C669.973 578.763 662.067 575.491 655.51 570.486C648.954 565.482 643.844 559.13 640.18 551.43C639.216 549.313 639.216 547.099 640.18 544.789C641.144 542.48 642.783 540.843 645.097 539.881C647.219 538.919 649.388 538.919 651.605 539.881C653.823 540.843 655.51 542.383 656.667 544.501C660.138 551.045 664.67 555.954 670.262 559.226C675.854 562.498 682.314 564.134 689.642 564.134C698.898 564.134 706.515 561.825 712.492 557.205C718.47 552.585 721.459 546.233 721.459 538.149C721.459 529.679 718.808 523.135 713.505 518.515C708.202 513.895 698.223 509.179 683.568 504.367C669.684 499.94 659.319 494.069 652.473 486.755C645.628 479.44 642.205 470.297 642.205 459.325C642.205 448.739 645.628 439.884 652.473 432.762C659.319 425.64 668.237 421.598 679.229 420.635V405.333C679.229 402.83 680.048 400.761 681.687 399.125C683.327 397.489 685.399 396.671 687.906 396.671C690.413 396.671 692.486 397.489 694.125 399.125C695.764 400.761 696.584 402.83 696.584 405.333V420.635C703.526 421.598 709.745 423.715 715.24 426.988C720.736 430.26 725.316 434.495 728.98 439.692C730.33 441.617 730.619 443.686 729.847 445.899C729.076 448.113 727.533 449.701 725.219 450.663C723.098 451.626 720.881 451.722 718.567 450.952C716.253 450.182 714.324 448.739 712.782 446.621C710.082 443.156 706.756 440.606 702.803 438.97C698.85 437.334 694.077 436.516 688.485 436.516C679.614 436.516 672.576 438.537 667.37 442.579C662.163 446.621 659.56 452.107 659.56 459.037C659.56 466.351 662.452 472.27 668.237 476.794C674.022 481.317 684.725 485.985 700.344 490.797C713.457 494.839 723.147 500.662 729.414 508.265C735.681 515.868 738.814 525.445 738.814 536.994C738.814 549.12 735.247 558.889 728.112 566.3C720.977 573.711 710.468 578.475 696.584 580.592V595.895C696.584 598.397 695.764 600.466 694.125 602.102C692.486 603.739 690.413 604.557 687.906 604.557Z" fill="url(#paint1_linear_254_1661)"/>
</g>
<g id="bitcoin">
<circle id="Ellipse 24" cx="550.171" cy="233" r="106" stroke="url(#paint2_linear_254_1661)" stroke-width="12"/>
<path id="Vector_2" d="M532.584 297.882C531.026 297.882 529.738 297.372 528.719 296.35C527.701 295.329 527.192 294.037 527.192 292.475V281.662H509.218C507.661 281.662 506.372 281.151 505.354 280.13C504.335 279.108 503.826 277.817 503.826 276.255C503.826 274.693 504.335 273.401 505.354 272.38C506.372 271.358 507.661 270.848 509.218 270.848H520.002V195.151H509.218C507.661 195.151 506.372 194.641 505.354 193.619C504.335 192.598 503.826 191.306 503.826 189.744C503.826 188.182 504.335 186.891 505.354 185.869C506.372 184.848 507.661 184.337 509.218 184.337H527.192V173.524C527.192 171.962 527.701 170.67 528.719 169.649C529.738 168.627 531.026 168.117 532.584 168.117C534.141 168.117 535.43 168.627 536.448 169.649C537.467 170.67 537.976 171.962 537.976 173.524V184.337H557.747V173.524C557.747 171.962 558.256 170.67 559.274 169.649C560.293 168.627 561.581 168.117 563.139 168.117C564.696 168.117 565.984 168.627 567.003 169.649C568.021 170.67 568.531 171.962 568.531 173.524V184.878C575.001 186.2 580.213 189.384 584.168 194.43C588.122 199.477 590.099 205.124 590.099 211.372C590.099 214.736 589.44 218.07 588.122 221.375C586.804 224.679 584.887 227.653 582.37 230.296C587.043 232.699 590.698 236.093 593.334 240.479C595.97 244.865 597.288 249.581 597.288 254.627C597.288 262.197 594.682 268.595 589.47 273.822C584.257 279.048 577.877 281.662 570.328 281.662H568.531V292.475C568.531 294.037 568.021 295.329 567.003 296.35C565.984 297.372 564.696 297.882 563.139 297.882C561.581 297.882 560.293 297.372 559.274 296.35C558.256 295.329 557.747 294.037 557.747 292.475V281.662H537.976V292.475C537.976 294.037 537.467 295.329 536.448 296.35C535.43 297.372 534.141 297.882 532.584 297.882ZM530.786 227.593H563.139C567.692 227.593 571.526 226.001 574.642 222.816C577.757 219.632 579.315 215.818 579.315 211.372C579.315 206.806 577.757 202.961 574.642 199.837C571.526 196.713 567.692 195.151 563.139 195.151H530.786V227.593ZM530.786 270.848H570.328C574.881 270.848 578.716 269.256 581.831 266.072C584.946 262.888 586.504 259.073 586.504 254.627C586.504 250.061 584.946 246.216 581.831 243.092C578.716 239.968 574.881 238.406 570.328 238.406H530.786V270.848Z" fill="url(#paint3_linear_254_1661)"/>
</g>
<g id="eterium">
<circle id="Ellipse 28" cx="249.5" cy="512.5" r="237.5" stroke="url(#paint4_linear_254_1661)" stroke-width="12"/>
<path id="Vector_3" fill-rule="evenodd" clip-rule="evenodd" d="M177.642 521.095L242.569 385.19V507.725L177.642 521.095ZM186.794 531.133L249.787 546.06L311.691 531.391L250.719 517.969L186.794 531.133ZM322.253 521.753L255.322 385.19V507.018L322.253 521.753ZM256.439 356.934C253.869 351.689 245.705 351.689 243.134 356.934L158.638 529.336C156.799 533.087 159.097 537.445 163.458 538.479L247.954 558.499C249.156 558.785 250.417 558.785 251.619 558.499L336.115 538.479C340.477 537.445 342.774 533.087 340.936 529.336L256.439 356.934ZM255.322 647.008L313.014 566.509L255.738 581.588C255.6 581.625 255.461 581.66 255.323 581.695L255.322 647.008ZM242.57 647.008L186.84 566.509L242.57 581.181L242.57 647.008ZM243.827 668.802C246.703 672.814 253.151 672.814 256.027 668.802L333.849 560.214C337.546 555.055 332.22 548.484 325.728 550.193L251.948 569.618C250.628 569.965 249.226 569.965 247.906 569.618L174.126 550.193C167.634 548.484 162.308 555.055 166.005 560.214C169.702 565.373 243.827 668.802 243.827 668.802Z" fill="url(#paint5_linear_254_1661)"/>
</g>
<g id="fondo">
<g id="Group 139">
<path id="Vector_4" d="M887.171 446.747C887.171 442.472 890.635 439 894.918 439C899.192 439 902.665 442.463 902.665 446.747C902.665 451.021 899.201 454.494 894.918 454.494C890.635 454.494 887.171 451.03 887.171 446.747Z" fill="#3113F1" fill-opacity="0.5"/>
</g>
<g id="Group 140">
<path id="Vector_5" d="M6.00252 282.751L41.0031 303L76 282.747L75.9975 242.247L40.9981 222L6 242.251L6.00252 282.751Z" stroke="#3113F1" stroke-opacity="0.5" stroke-width="5" stroke-linecap="round" stroke-linejoin="round"/>
<path id="Vector_6" d="M3.00252 107.751L38.0031 128L73 107.747L72.9975 67.247L37.9981 46.9995L3 67.2508L3.00252 107.751Z" stroke="#3113F1" stroke-opacity="0.5" stroke-width="5" stroke-linecap="round" stroke-linejoin="round"/>
<path id="Vector_7" d="M240.174 213.751L275.175 234L310.171 213.747L310.169 173.247L275.169 153L240.171 173.251L240.174 213.751Z" stroke="#3113F1" stroke-opacity="0.5" stroke-width="5" stroke-linecap="round" stroke-linejoin="round"/>
<path id="Vector_8" d="M631 748.622C631 744.41 634.41 741 638.622 741C642.834 741 646.244 744.41 646.244 748.622C646.244 752.834 642.834 756.245 638.622 756.245C634.41 756.245 631 752.834 631 748.622Z" fill="#3113F1" fill-opacity="0.5"/>
<path id="Vector_9" d="M736 723.622C736 719.41 739.41 716 743.622 716C747.834 716 751.244 719.41 751.244 723.622C751.244 727.834 747.834 731.245 743.622 731.245C739.41 731.245 736 727.834 736 723.622Z" fill="#3113F1" fill-opacity="0.5"/>
<path id="Vector_10" d="M182 135.622C182 131.41 185.41 128 189.622 128C193.834 128 197.244 131.41 197.244 135.622C197.244 139.834 193.834 143.245 189.622 143.245C185.41 143.245 182 139.834 182 135.622Z" fill="#3113F1" fill-opacity="0.5"/>
</g>
<g id="Group 137">
<path id="Vector_11" d="M800.002 702.75L823.002 716L846 702.748L845.998 676.248L822.999 663L800 676.25L800.002 702.75Z" stroke="#3113F1" stroke-opacity="0.5" stroke-width="5" stroke-linecap="round" stroke-linejoin="round"/>
<path id="Vector_12" d="M815.174 361.001L851.175 382L887.171 360.997L887.169 318.997L851.169 298L815.171 319.001L815.174 361.001Z" stroke="#3113F1" stroke-opacity="0.5" stroke-width="5" stroke-linecap="round" stroke-linejoin="round"/>
<path id="Vector_13" d="M3 674.622C3 670.41 6.41036 667 10.622 667C14.8337 667 18.2441 670.41 18.2441 674.622C18.2441 678.834 14.8337 682.245 10.622 682.245C6.41036 682.245 3 678.834 3 674.622Z" fill="#3113F1" fill-opacity="0.5"/>
<g id="Group 120">
<path id="Vector_14" d="M717.632 285.09C717.632 281.982 720.152 279.454 723.269 279.454C726.376 279.454 728.905 281.974 728.905 285.09C728.905 288.207 726.385 290.727 723.269 290.727C720.161 290.727 717.632 288.207 717.632 285.09Z" fill="#3113F1" fill-opacity="0.5"/>
<path id="Vector_15" d="M731.311 293.141C735.755 288.696 735.755 281.491 731.311 277.047C726.867 272.602 719.662 272.602 715.218 277.047C710.774 281.491 710.774 288.696 715.218 293.141C719.662 297.585 726.867 297.585 731.311 293.141Z" stroke="#3113F1" stroke-opacity="0.5" stroke-width="4" stroke-linecap="round" stroke-linejoin="round"/>
</g>
</g>
<g id="Group 119">
<path id="Vector_16" d="M368.632 216.091C368.632 212.983 371.152 210.454 374.269 210.454C377.376 210.454 379.905 212.974 379.905 216.091C379.905 219.207 377.385 221.728 374.269 221.728C371.161 221.728 368.632 219.207 368.632 216.091Z" fill="#3113F1" fill-opacity="0.5"/>
<path id="Vector_17" d="M382.311 224.141C386.755 219.696 386.755 212.491 382.311 208.047C377.867 203.602 370.662 203.602 366.218 208.047C361.774 212.491 361.774 219.696 366.218 224.141C370.662 228.585 377.867 228.585 382.311 224.141Z" stroke="#3113F1" stroke-opacity="0.5" stroke-width="4" stroke-linecap="round" stroke-linejoin="round"/>
<path id="Vector_18" d="M574.14 24.1413C578.584 19.6969 578.583 12.4914 574.139 8.04705C569.695 3.60273 562.491 3.60273 558.047 8.04705C553.603 12.4914 553.602 19.6969 558.046 24.1413C562.49 28.5856 569.696 28.5856 574.14 24.1413Z" stroke="#3113F1" stroke-opacity="0.5" stroke-width="4" stroke-linecap="round" stroke-linejoin="round"/>
</g>
<g id="Group 122_2">
<path id="Vector_19" d="M142.461 216.091C142.461 212.983 144.981 210.454 148.097 210.454C151.205 210.454 153.734 212.974 153.734 216.091C153.734 219.207 151.214 221.728 148.097 221.728C144.99 221.728 142.461 219.207 142.461 216.091Z" fill="#3113F1" fill-opacity="0.5"/>
</g>
<g id="Group 123">
<path id="Vector_20" d="M54.4609 159.09C54.4609 155.982 56.9807 153.454 60.0971 153.454C63.2047 153.454 65.7336 155.974 65.7336 159.09C65.7336 162.207 63.2136 164.727 60.0971 164.727C56.9896 164.727 54.4609 162.207 54.4609 159.09Z" fill="#3113F1" fill-opacity="0.5"/>
<path id="Vector_21" d="M68.1396 167.141C72.5836 162.696 72.5834 155.491 68.1394 151.047C63.6954 146.602 56.4906 146.602 52.0466 151.047C47.6026 155.491 47.6024 162.696 52.0464 167.141C56.4904 171.585 63.6956 171.585 68.1396 167.141Z" stroke="#3113F1" stroke-opacity="0.5" stroke-width="4" stroke-linecap="round" stroke-linejoin="round"/>
</g>
<g id="Group 121">
<path id="Vector_22" d="M384.632 137.09C384.632 133.982 387.152 131.454 390.269 131.454C393.376 131.454 395.905 133.974 395.905 137.09C395.905 140.207 393.385 142.727 390.269 142.727C387.161 142.727 384.632 140.207 384.632 137.09Z" fill="#3113F1" fill-opacity="0.5"/>
<path id="Vector_23" d="M398.311 145.141C402.755 140.696 402.755 133.491 398.311 129.047C393.867 124.602 386.662 124.602 382.218 129.047C377.774 133.491 377.774 140.696 382.218 145.141C386.662 149.585 393.867 149.585 398.311 145.141Z" stroke="#3113F1" stroke-opacity="0.5" stroke-width="4" stroke-linecap="round" stroke-linejoin="round"/>
</g>
<g id="Group 138">
<path id="Vector_24" d="M504.174 735.751L539.175 756L574.171 735.747L574.169 695.247L539.169 675L504.171 695.251L504.174 735.751Z" stroke="#3113F1" stroke-opacity="0.5" stroke-width="5" stroke-linecap="round" stroke-linejoin="round"/>
<path id="Vector_25" d="M18.0017 758L42.0022 772L66 757.998L65.9983 729.998L41.9987 716L18 730L18.0017 758Z" stroke="#3113F1" stroke-opacity="0.5" stroke-width="5" stroke-linecap="round" stroke-linejoin="round"/>
<path id="Vector_26" d="M744.171 201.622C744.171 197.41 747.582 194 751.793 194C756.005 194 759.415 197.41 759.415 201.622C759.415 205.834 756.005 209.245 751.793 209.245C747.582 209.245 744.171 205.834 744.171 201.622Z" fill="#3113F1" fill-opacity="0.5"/>
<path id="Vector_27" d="M751 795.622C751 791.41 754.41 788 758.622 788C762.834 788 766.244 791.41 766.244 795.622C766.244 799.834 762.834 803.245 758.622 803.245C754.41 803.245 751 799.834 751 795.622Z" fill="#3113F1" fill-opacity="0.5"/>
<g id="Group 118">
<path id="Vector_28" d="M845.632 218.09C845.632 214.982 848.152 212.454 851.269 212.454C854.376 212.454 856.905 214.974 856.905 218.09C856.905 221.207 854.385 223.727 851.269 223.727C848.161 223.727 845.632 221.207 845.632 218.09Z" fill="#3113F1" fill-opacity="0.5"/>
<path id="Vector_29" d="M859.311 226.141C863.755 221.696 863.755 214.491 859.311 210.047C854.867 205.602 847.662 205.602 843.218 210.047C838.774 214.491 838.774 221.696 843.218 226.141C847.662 230.585 854.867 230.585 859.311 226.141Z" stroke="#3113F1" stroke-opacity="0.5" stroke-width="4" stroke-linecap="round" stroke-linejoin="round"/>
</g>
<g id="Group 119_2">
<path id="Vector_30" d="M685.461 88.0902C685.461 84.9824 687.981 82.4536 691.097 82.4536C694.205 82.4536 696.734 84.9735 696.734 88.0902C696.734 91.2069 694.214 93.7271 691.097 93.7271C687.99 93.7271 685.461 91.2069 685.461 88.0902Z" fill="#3113F1" fill-opacity="0.5"/>
<path id="Vector_31" d="M699.14 96.1408C703.584 91.6965 703.583 84.4909 699.139 80.0466C694.695 75.6022 687.491 75.6022 683.047 80.0466C678.603 84.4909 678.602 91.6965 683.046 96.1408C687.49 100.585 694.696 100.585 699.14 96.1408Z" stroke="#3113F1" stroke-opacity="0.5" stroke-width="4" stroke-linecap="round" stroke-linejoin="round"/>
</g>
</g>
<g id="Group 124">
<path id="Vector_32" d="M432.461 772.091C432.461 768.983 434.981 766.454 438.097 766.454C441.205 766.454 443.734 768.974 443.734 772.091C443.734 775.207 441.214 777.728 438.097 777.728C434.99 777.728 432.461 775.207 432.461 772.091Z" fill="#3113F1" fill-opacity="0.5"/>
<path id="Vector_33" d="M446.14 780.141C450.584 775.697 450.583 768.491 446.139 764.047C441.695 759.603 434.491 759.603 430.047 764.047C425.603 768.491 425.602 775.697 430.046 780.141C434.49 784.586 441.696 784.586 446.14 780.141Z" stroke="#3113F1" stroke-opacity="0.5" stroke-width="4" stroke-linecap="round" stroke-linejoin="round"/>
</g>
</g>
</g>
<defs>
<linearGradient id="paint0_linear_254_1661" x1="689.9" y1="334" x2="689.9" y2="679.457" gradientUnits="userSpaceOnUse">
<stop stop-color="#3113F1"/>
<stop offset="1" stop-color="#883DF2"/>
</linearGradient>
<linearGradient id="paint1_linear_254_1661" x1="689.136" y1="396.671" x2="689.136" y2="604.557" gradientUnits="userSpaceOnUse">
<stop stop-color="#883DF2"/>
<stop offset="1" stop-color="#3113F1"/>
</linearGradient>
<linearGradient id="paint2_linear_254_1661" x1="550.171" y1="121" x2="550.171" y2="345" gradientUnits="userSpaceOnUse">
<stop stop-color="#3113F1"/>
<stop offset="1" stop-color="#883DF2"/>
</linearGradient>
<linearGradient id="paint3_linear_254_1661" x1="550.557" y1="168.117" x2="550.557" y2="297.882" gradientUnits="userSpaceOnUse">
<stop stop-color="#3113F1"/>
<stop offset="1" stop-color="#3113F1"/>
</linearGradient>
<linearGradient id="paint4_linear_254_1661" x1="249.5" y1="269" x2="249.5" y2="756" gradientUnits="userSpaceOnUse">
<stop stop-color="#3113F1"/>
<stop offset="1" stop-color="#883DF2"/>
</linearGradient>
<linearGradient id="paint5_linear_254_1661" x1="249.787" y1="353" x2="249.787" y2="671.811" gradientUnits="userSpaceOnUse">
<stop stop-color="#3113F1"/>
<stop offset="1" stop-color="#883DF2"/>
</linearGradient>
</defs>
</svg>
