<svg width="1920" height="1075" viewBox="0 0 1920 1075" fill="none" xmlns="http://www.w3.org/2000/svg">
<g opacity="0.5">
<mask id="mask0_298_260" style="mask-type:alpha" maskUnits="userSpaceOnUse" x="0" y="0" width="1920" height="1075">
<rect x="1920" y="1075" width="1920" height="1075" transform="rotate(-180 1920 1075)" fill="#D9D9D9"/>
</mask>
<g mask="url(#mask0_298_260)">
<path d="M-50.5307 1339L398 1074.94L397.991 860.399L212.205 753.14L-152.893 966.634" stroke="#3113F1" stroke-opacity="0.5" stroke-width="4" stroke-linecap="round" stroke-linejoin="round"/>
<path d="M205.445 905.698L205.463 1093.9L368.446 1188L531.419 1093.88L531.41 905.68" stroke="#3113F1" stroke-opacity="0.7" stroke-width="4" stroke-linecap="round" stroke-linejoin="round"/>
<path d="M539.415 905.68C539.415 910.106 535.827 913.694 531.401 913.694C526.976 913.694 523.387 910.106 523.387 905.68C523.387 901.254 526.976 897.666 531.401 897.666C535.827 897.666 539.415 901.254 539.415 905.68Z" fill="#3113F1" fill-opacity="0.7"/>
<path d="M211.768 907.39C211.768 911.816 208.179 915.404 203.754 915.404C199.328 915.404 195.74 911.816 195.74 907.39C195.74 902.964 199.328 899.376 203.754 899.376C208.179 899.376 211.768 902.964 211.768 907.39Z" fill="#3113F1" fill-opacity="0.7"/>
<path d="M514.796 894.599C508.708 903.763 511.201 916.127 520.364 922.215C529.526 928.303 541.889 925.81 547.977 916.647C554.065 907.483 551.572 895.119 542.409 889.031C533.246 882.943 520.883 885.436 514.796 894.599Z" stroke="#3113F1" stroke-opacity="0.7" stroke-width="4" stroke-linecap="round" stroke-linejoin="round"/>
<path d="M186.961 896.769C181.07 906.06 183.825 918.369 193.115 924.26C202.406 930.152 214.713 927.396 220.604 918.105C226.496 908.814 223.74 896.506 214.45 890.614C205.159 884.723 192.852 887.478 186.961 896.769Z" stroke="#3113F1" stroke-opacity="0.7" stroke-width="4" stroke-linecap="round" stroke-linejoin="round"/>
<path d="M1861.45 981.698L1861.46 1169.9L2024.45 1264L2187.42 1169.88L2187.41 981.68" stroke="#3113F1" stroke-opacity="0.7" stroke-width="4" stroke-linecap="round" stroke-linejoin="round"/>
<path d="M1867.77 983.39C1867.77 987.816 1864.18 991.404 1859.75 991.404C1855.33 991.404 1851.74 987.816 1851.74 983.39C1851.74 978.964 1855.33 975.376 1859.75 975.376C1864.18 975.376 1867.77 978.964 1867.77 983.39Z" fill="#3113F1" fill-opacity="0.7"/>
<path d="M1842.96 972.769C1837.07 982.06 1839.83 994.369 1849.12 1000.26C1858.41 1006.15 1870.71 1003.4 1876.6 994.105C1882.5 984.814 1879.74 972.506 1870.45 966.614C1861.16 960.723 1848.85 963.478 1842.96 972.769Z" stroke="#3113F1" stroke-opacity="0.7" stroke-width="4" stroke-linecap="round" stroke-linejoin="round"/>
<path d="M1120.44 1176.84L1120.43 980.274L950.212 882L780 980.292L780.009 1176.86" stroke="#3113F1" stroke-opacity="0.5" stroke-width="4" stroke-linecap="round" stroke-linejoin="round"/>
<path d="M2090 1140.98L2089.99 944.416L1919.77 846.142L1749.56 944.434L1749.57 1141" stroke="#3113F1" stroke-width="4" stroke-linecap="round" stroke-linejoin="round"/>
<path d="M1304.03 1012.93L1156.03 927.941L1008.03 1012.94L1008.03 1182.94L1156.04 1267.94L1304.03 1182.94L1304.03 1012.93Z" stroke="#3113F1" stroke-opacity="0.7" stroke-width="4" stroke-linecap="round" stroke-linejoin="round"/>
<path d="M104.997 680.999L68.9968 660L33 681.003L33.0026 723.003L69.0019 744L105 722.999L104.997 680.999Z" stroke="#3113F1" stroke-opacity="0.5" stroke-width="5" stroke-linecap="round" stroke-linejoin="round"/>
<path d="M1753 846.999L1717 826L1681 847.003L1681 889.003L1717 910L1753 888.999L1753 846.999Z" stroke="#3113F1" stroke-opacity="0.5" stroke-width="5" stroke-linecap="round" stroke-linejoin="round"/>
<path d="M1471 985.999L1435 965L1399 986.003L1399 1028L1435 1049L1471 1028L1471 985.999Z" stroke="#3113F1" stroke-opacity="0.5" stroke-width="5" stroke-linecap="round" stroke-linejoin="round"/>
<path d="M1110 834.999L1074 814L1038 835.003L1038 877.003L1074 898L1110 876.999L1110 834.999Z" stroke="#3113F1" stroke-opacity="0.5" stroke-width="5" stroke-linecap="round" stroke-linejoin="round"/>
<path d="M938 810.253C938 814.527 934.536 818 930.253 818C925.979 818 922.507 814.536 922.507 810.253C922.507 805.978 925.97 802.506 930.253 802.506C934.536 802.506 938 805.97 938 810.253Z" fill="#3113F1" fill-opacity="0.5"/>
<path d="M1375.49 934.747C1375.49 939.021 1372.03 942.494 1367.75 942.494C1363.47 942.494 1360 939.03 1360 934.747C1360 930.473 1363.46 927 1367.75 927C1372.03 927 1375.49 930.464 1375.49 934.747Z" fill="#3113F1" fill-opacity="0.5"/>
<path d="M456 783.253C456 787.527 452.536 791 448.253 791C443.979 791 440.507 787.536 440.507 783.253C440.507 778.978 443.97 775.506 448.253 775.506C452.536 775.506 456 778.97 456 783.253Z" fill="#3113F1" fill-opacity="0.5"/>
<path d="M146 736.253C146 740.527 142.536 744 138.253 744C133.979 744 130.507 740.536 130.507 736.253C130.507 731.978 133.97 728.506 138.253 728.506C142.536 728.506 146 731.97 146 736.253Z" fill="#3113F1" fill-opacity="0.5"/>
<path d="M649 869.253C649 873.527 645.536 877 641.253 877C636.979 877 633.507 873.536 633.507 869.253C633.507 864.978 636.97 861.506 641.253 861.506C645.536 861.506 649 864.97 649 869.253Z" fill="#3113F1" fill-opacity="0.5"/>
<path d="M1258.59 931.549L1258.61 1119.75L1421.59 1213.85L1584.57 1119.74L1584.56 931.531" stroke="#3113F1" stroke-opacity="0.7" stroke-width="4" stroke-linecap="round" stroke-linejoin="round"/>
<path d="M1592.56 931.531C1592.56 935.956 1588.98 939.545 1584.55 939.545C1580.12 939.545 1576.54 935.956 1576.54 931.531C1576.54 927.105 1580.12 923.516 1584.55 923.516C1588.98 923.516 1592.56 927.105 1592.56 931.531Z" fill="#3113F1" fill-opacity="0.7"/>
<path d="M1264.92 933.241C1264.92 937.666 1261.33 941.255 1256.9 941.255C1252.48 941.255 1248.89 937.666 1248.89 933.241C1248.89 928.815 1252.48 925.226 1256.9 925.226C1261.33 925.226 1264.92 928.815 1264.92 933.241Z" fill="#3113F1" fill-opacity="0.7"/>
<path d="M1567.94 920.45C1561.86 929.613 1564.35 941.977 1573.51 948.065C1582.67 954.154 1595.04 951.661 1601.13 942.497C1607.21 933.334 1604.72 920.97 1595.56 914.882C1586.39 908.793 1574.03 911.286 1567.94 920.45Z" stroke="#3113F1" stroke-opacity="0.7" stroke-width="4" stroke-linecap="round" stroke-linejoin="round"/>
<path d="M1240.11 922.62C1234.22 931.911 1236.97 944.219 1246.26 950.111C1255.55 956.003 1267.86 953.247 1273.75 943.956C1279.64 934.665 1276.89 922.357 1267.6 916.465C1258.31 910.573 1246 913.329 1240.11 922.62Z" stroke="#3113F1" stroke-opacity="0.7" stroke-width="4" stroke-linecap="round" stroke-linejoin="round"/>
</g>
</g>
</svg>
