<svg width="937" height="804" viewBox="0 0 937 804" fill="none" xmlns="http://www.w3.org/2000/svg">
<g id="Group 122">
<g id="cash">
<circle id="Ellipse 27" cx="723.9" cy="506.728" r="166.729" stroke="url(#paint0_linear_254_1661)" stroke-width="12"/>
<path id="Vector" d="M721.906 604.557C719.399 604.557 717.327 603.739 715.687 602.102C714.048 600.466 713.229 598.397 713.229 595.895V580.303C703.973 578.763 696.067 575.491 689.51 570.486C682.954 565.482 677.844 559.13 674.18 551.43C673.216 549.313 673.216 547.099 674.18 544.789C675.144 542.48 676.783 540.843 679.097 539.881C681.219 538.919 683.388 538.919 685.605 539.881C687.823 540.843 689.51 542.383 690.667 544.501C694.138 551.045 698.67 555.954 704.262 559.226C709.854 562.498 716.314 564.134 723.642 564.134C732.898 564.134 740.515 561.825 746.492 557.205C752.47 552.585 755.459 546.233 755.459 538.149C755.459 529.679 752.808 523.135 747.505 518.515C742.202 513.895 732.223 509.179 717.568 504.367C703.684 499.94 693.319 494.069 686.473 486.755C679.628 479.44 676.205 470.297 676.205 459.325C676.205 448.739 679.628 439.884 686.473 432.762C693.319 425.64 702.237 421.598 713.229 420.635V405.333C713.229 402.83 714.048 400.761 715.687 399.125C717.327 397.489 719.399 396.671 721.906 396.671C724.413 396.671 726.486 397.489 728.125 399.125C729.764 400.761 730.584 402.83 730.584 405.333V420.635C737.526 421.598 743.745 423.715 749.24 426.988C754.736 430.26 759.316 434.495 762.98 439.692C764.33 441.617 764.619 443.686 763.847 445.899C763.076 448.113 761.533 449.701 759.219 450.663C757.098 451.626 754.881 451.722 752.567 450.952C750.253 450.182 748.324 448.739 746.782 446.621C744.082 443.156 740.756 440.606 736.803 438.97C732.85 437.334 728.077 436.516 722.485 436.516C713.614 436.516 706.576 438.537 701.37 442.579C696.163 446.621 693.56 452.107 693.56 459.037C693.56 466.351 696.452 472.27 702.237 476.794C708.022 481.317 718.725 485.985 734.344 490.797C747.457 494.839 757.147 500.662 763.414 508.265C769.681 515.868 772.814 525.445 772.814 536.994C772.814 549.12 769.247 558.889 762.112 566.3C754.977 573.711 744.468 578.475 730.584 580.592V595.895C730.584 598.397 729.764 600.466 728.125 602.102C726.486 603.739 724.413 604.557 721.906 604.557Z" fill="url(#paint1_linear_254_1661)"/>
</g>
<g id="bitcoin">
<circle id="Ellipse 24" cx="584.171" cy="233" r="106" stroke="url(#paint2_linear_254_1661)" stroke-width="12"/>
<path id="Vector_2" d="M566.584 297.882C565.026 297.882 563.738 297.372 562.719 296.35C561.701 295.329 561.192 294.037 561.192 292.475V281.662H543.218C541.661 281.662 540.372 281.151 539.354 280.13C538.335 279.108 537.826 277.817 537.826 276.255C537.826 274.693 538.335 273.401 539.354 272.38C540.372 271.358 541.661 270.848 543.218 270.848H554.002V195.151H543.218C541.661 195.151 540.372 194.641 539.354 193.619C538.335 192.598 537.826 191.306 537.826 189.744C537.826 188.182 538.335 186.891 539.354 185.869C540.372 184.848 541.661 184.337 543.218 184.337H561.192V173.524C561.192 171.962 561.701 170.67 562.719 169.649C563.738 168.627 565.026 168.117 566.584 168.117C568.141 168.117 569.43 168.627 570.448 169.649C571.467 170.67 571.976 171.962 571.976 173.524V184.337H591.747V173.524C591.747 171.962 592.256 170.67 593.274 169.649C594.293 168.627 595.581 168.117 597.139 168.117C598.696 168.117 599.984 168.627 601.003 169.649C602.021 170.67 602.531 171.962 602.531 173.524V184.878C609.001 186.2 614.213 189.384 618.168 194.43C622.122 199.477 624.099 205.124 624.099 211.372C624.099 214.736 623.44 218.07 622.122 221.375C620.804 224.679 618.887 227.653 616.37 230.296C621.043 232.699 624.698 236.093 627.334 240.479C629.97 244.865 631.288 249.581 631.288 254.627C631.288 262.197 628.682 268.595 623.47 273.822C618.257 279.048 611.877 281.662 604.328 281.662H602.531V292.475C602.531 294.037 602.021 295.329 601.003 296.35C599.984 297.372 598.696 297.882 597.139 297.882C595.581 297.882 594.293 297.372 593.274 296.35C592.256 295.329 591.747 294.037 591.747 292.475V281.662H571.976V292.475C571.976 294.037 571.467 295.329 570.448 296.35C569.43 297.372 568.141 297.882 566.584 297.882ZM564.786 227.593H597.139C601.692 227.593 605.526 226.001 608.642 222.816C611.757 219.632 613.315 215.818 613.315 211.372C613.315 206.806 611.757 202.961 608.642 199.837C605.526 196.713 601.692 195.151 597.139 195.151H564.786V227.593ZM564.786 270.848H604.328C608.881 270.848 612.716 269.256 615.831 266.072C618.946 262.888 620.504 259.073 620.504 254.627C620.504 250.061 618.946 246.216 615.831 243.092C612.716 239.968 608.881 238.406 604.328 238.406H564.786V270.848Z" fill="url(#paint3_linear_254_1661)"/>
</g>
<g id="eterium" filter="url(#filter0_d_254_1661)">
<circle id="Ellipse 28" cx="283.5" cy="512.5" r="237.5" stroke="url(#paint4_linear_254_1661)" stroke-width="12"/>
<path id="Vector_3" fill-rule="evenodd" clip-rule="evenodd" d="M211.642 521.095L276.569 385.19V507.725L211.642 521.095ZM220.794 531.133L283.787 546.06L345.691 531.391L284.719 517.969L220.794 531.133ZM356.253 521.753L289.322 385.19V507.018L356.253 521.753ZM290.439 356.934C287.869 351.689 279.705 351.689 277.134 356.934L192.638 529.336C190.799 533.087 193.097 537.445 197.458 538.479L281.954 558.499C283.156 558.785 284.417 558.785 285.619 558.499L370.115 538.479C374.477 537.445 376.774 533.087 374.936 529.336L290.439 356.934ZM289.322 647.008L347.014 566.509L289.738 581.588C289.6 581.625 289.461 581.66 289.323 581.695L289.322 647.008ZM276.57 647.008L220.84 566.509L276.57 581.181L276.57 647.008ZM277.827 668.802C280.703 672.814 287.151 672.814 290.027 668.802L367.849 560.214C371.546 555.055 366.22 548.484 359.728 550.193L285.948 569.618C284.628 569.965 283.226 569.965 281.906 569.618L208.126 550.193C201.634 548.484 196.308 555.055 200.005 560.214C203.702 565.373 277.827 668.802 277.827 668.802Z" fill="url(#paint5_linear_254_1661)"/>
</g>
<g id="fondo">
<g id="Group 139">
<path id="Vector_4" d="M921.171 446.747C921.171 442.472 924.635 439 928.918 439C933.192 439 936.665 442.463 936.665 446.747C936.665 451.021 933.201 454.494 928.918 454.494C924.635 454.494 921.171 451.03 921.171 446.747Z" fill="#3113F1" fill-opacity="0.5"/>
</g>
<g id="Group 140">
<path id="Vector_5" d="M40.0025 282.751L75.0031 303L110 282.747L109.997 242.247L74.9981 222L40 242.251L40.0025 282.751Z" stroke="#3113F1" stroke-opacity="0.5" stroke-width="5" stroke-linecap="round" stroke-linejoin="round"/>
<path id="Vector_6" d="M37.0025 107.751L72.0031 128L107 107.747L106.997 67.247L71.9981 46.9995L37 67.2508L37.0025 107.751Z" stroke="#3113F1" stroke-opacity="0.5" stroke-width="5" stroke-linecap="round" stroke-linejoin="round"/>
<path id="Vector_7" d="M274.174 213.751L309.175 234L344.171 213.747L344.169 173.247L309.169 153L274.171 173.251L274.174 213.751Z" stroke="#3113F1" stroke-opacity="0.5" stroke-width="5" stroke-linecap="round" stroke-linejoin="round"/>
<path id="Vector_8" d="M665 748.622C665 744.41 668.41 741 672.622 741C676.834 741 680.244 744.41 680.244 748.622C680.244 752.834 676.834 756.245 672.622 756.245C668.41 756.245 665 752.834 665 748.622Z" fill="#3113F1" fill-opacity="0.5"/>
<path id="Vector_9" d="M770 723.622C770 719.41 773.41 716 777.622 716C781.834 716 785.244 719.41 785.244 723.622C785.244 727.834 781.834 731.245 777.622 731.245C773.41 731.245 770 727.834 770 723.622Z" fill="#3113F1" fill-opacity="0.5"/>
<path id="Vector_10" d="M216 135.622C216 131.41 219.41 128 223.622 128C227.834 128 231.244 131.41 231.244 135.622C231.244 139.834 227.834 143.245 223.622 143.245C219.41 143.245 216 139.834 216 135.622Z" fill="#3113F1" fill-opacity="0.5"/>
</g>
<g id="Group 137">
<path id="Vector_11" d="M834.002 702.75L857.002 716L880 702.748L879.998 676.248L856.999 663L834 676.25L834.002 702.75Z" stroke="#3113F1" stroke-opacity="0.5" stroke-width="5" stroke-linecap="round" stroke-linejoin="round"/>
<path id="Vector_12" d="M849.174 361.001L885.175 382L921.171 360.997L921.169 318.997L885.169 298L849.171 319.001L849.174 361.001Z" stroke="#3113F1" stroke-opacity="0.5" stroke-width="5" stroke-linecap="round" stroke-linejoin="round"/>
<path id="Vector_13" d="M37 674.622C37 670.41 40.4104 667 44.622 667C48.8337 667 52.2441 670.41 52.2441 674.622C52.2441 678.834 48.8337 682.245 44.622 682.245C40.4104 682.245 37 678.834 37 674.622Z" fill="#3113F1" fill-opacity="0.5"/>
<g id="Group 120">
<path id="Vector_14" d="M751.632 285.09C751.632 281.982 754.152 279.454 757.269 279.454C760.376 279.454 762.905 281.974 762.905 285.09C762.905 288.207 760.385 290.727 757.269 290.727C754.161 290.727 751.632 288.207 751.632 285.09Z" fill="#3113F1" fill-opacity="0.5"/>
<path id="Vector_15" d="M765.311 293.141C769.755 288.696 769.755 281.491 765.311 277.047C760.867 272.602 753.662 272.602 749.218 277.047C744.774 281.491 744.774 288.696 749.218 293.141C753.662 297.585 760.867 297.585 765.311 293.141Z" stroke="#3113F1" stroke-opacity="0.5" stroke-width="4" stroke-linecap="round" stroke-linejoin="round"/>
</g>
</g>
<g id="Group 119">
<path id="Vector_16" d="M402.632 216.091C402.632 212.983 405.152 210.454 408.269 210.454C411.376 210.454 413.905 212.974 413.905 216.091C413.905 219.207 411.385 221.728 408.269 221.728C405.161 221.728 402.632 219.207 402.632 216.091Z" fill="#3113F1" fill-opacity="0.5"/>
<path id="Vector_17" d="M416.311 224.141C420.755 219.696 420.755 212.491 416.311 208.047C411.867 203.602 404.662 203.602 400.218 208.047C395.774 212.491 395.774 219.696 400.218 224.141C404.662 228.585 411.867 228.585 416.311 224.141Z" stroke="#3113F1" stroke-opacity="0.5" stroke-width="4" stroke-linecap="round" stroke-linejoin="round"/>
<path id="Vector_18" d="M608.14 24.1413C612.584 19.6969 612.583 12.4914 608.139 8.04705C603.695 3.60273 596.491 3.60273 592.047 8.04705C587.603 12.4914 587.602 19.6969 592.046 24.1413C596.49 28.5856 603.696 28.5856 608.14 24.1413Z" stroke="#3113F1" stroke-opacity="0.5" stroke-width="4" stroke-linecap="round" stroke-linejoin="round"/>
</g>
<g id="Group 122_2">
<path id="Vector_19" d="M176.461 216.091C176.461 212.983 178.981 210.454 182.097 210.454C185.205 210.454 187.734 212.974 187.734 216.091C187.734 219.207 185.214 221.728 182.097 221.728C178.99 221.728 176.461 219.207 176.461 216.091Z" fill="#3113F1" fill-opacity="0.5"/>
</g>
<g id="Group 123">
<path id="Vector_20" d="M88.4609 159.09C88.4609 155.982 90.9807 153.454 94.0971 153.454C97.2047 153.454 99.7336 155.974 99.7336 159.09C99.7336 162.207 97.2136 164.727 94.0971 164.727C90.9896 164.727 88.4609 162.207 88.4609 159.09Z" fill="#3113F1" fill-opacity="0.5"/>
<path id="Vector_21" d="M102.14 167.141C106.584 162.696 106.583 155.491 102.139 151.047C97.6954 146.602 90.4906 146.602 86.0466 151.047C81.6026 155.491 81.6024 162.696 86.0464 167.141C90.4904 171.585 97.6956 171.585 102.14 167.141Z" stroke="#3113F1" stroke-opacity="0.5" stroke-width="4" stroke-linecap="round" stroke-linejoin="round"/>
</g>
<g id="Group 121">
<path id="Vector_22" d="M418.632 137.09C418.632 133.982 421.152 131.454 424.269 131.454C427.376 131.454 429.905 133.974 429.905 137.09C429.905 140.207 427.385 142.727 424.269 142.727C421.161 142.727 418.632 140.207 418.632 137.09Z" fill="#3113F1" fill-opacity="0.5"/>
<path id="Vector_23" d="M432.311 145.141C436.755 140.696 436.755 133.491 432.311 129.047C427.867 124.602 420.662 124.602 416.218 129.047C411.774 133.491 411.774 140.696 416.218 145.141C420.662 149.585 427.867 149.585 432.311 145.141Z" stroke="#3113F1" stroke-opacity="0.5" stroke-width="4" stroke-linecap="round" stroke-linejoin="round"/>
</g>
<g id="Group 138">
<path id="Vector_24" d="M538.174 735.751L573.175 756L608.171 735.747L608.169 695.247L573.169 675L538.171 695.251L538.174 735.751Z" stroke="#3113F1" stroke-opacity="0.5" stroke-width="5" stroke-linecap="round" stroke-linejoin="round"/>
<path id="Vector_25" d="M52.0017 758L76.0022 772L100 757.998L99.9983 729.998L75.9987 716L52 730L52.0017 758Z" stroke="#3113F1" stroke-opacity="0.5" stroke-width="5" stroke-linecap="round" stroke-linejoin="round"/>
<path id="Vector_26" d="M778.171 201.622C778.171 197.41 781.582 194 785.793 194C790.005 194 793.415 197.41 793.415 201.622C793.415 205.834 790.005 209.245 785.793 209.245C781.582 209.245 778.171 205.834 778.171 201.622Z" fill="#3113F1" fill-opacity="0.5"/>
<path id="Vector_27" d="M785 795.622C785 791.41 788.41 788 792.622 788C796.834 788 800.244 791.41 800.244 795.622C800.244 799.834 796.834 803.245 792.622 803.245C788.41 803.245 785 799.834 785 795.622Z" fill="#3113F1" fill-opacity="0.5"/>
<g id="Group 118">
<path id="Vector_28" d="M879.632 218.09C879.632 214.982 882.152 212.454 885.269 212.454C888.376 212.454 890.905 214.974 890.905 218.09C890.905 221.207 888.385 223.727 885.269 223.727C882.161 223.727 879.632 221.207 879.632 218.09Z" fill="#3113F1" fill-opacity="0.5"/>
<path id="Vector_29" d="M893.311 226.141C897.755 221.696 897.755 214.491 893.311 210.047C888.867 205.602 881.662 205.602 877.218 210.047C872.774 214.491 872.774 221.696 877.218 226.141C881.662 230.585 888.867 230.585 893.311 226.141Z" stroke="#3113F1" stroke-opacity="0.5" stroke-width="4" stroke-linecap="round" stroke-linejoin="round"/>
</g>
<g id="Group 119_2">
<path id="Vector_30" d="M719.461 88.0902C719.461 84.9824 721.981 82.4536 725.097 82.4536C728.205 82.4536 730.734 84.9735 730.734 88.0902C730.734 91.2069 728.214 93.7271 725.097 93.7271C721.99 93.7271 719.461 91.2069 719.461 88.0902Z" fill="#3113F1" fill-opacity="0.5"/>
<path id="Vector_31" d="M733.14 96.1408C737.584 91.6965 737.583 84.4909 733.139 80.0466C728.695 75.6022 721.491 75.6022 717.047 80.0466C712.603 84.4909 712.602 91.6965 717.046 96.1408C721.49 100.585 728.696 100.585 733.14 96.1408Z" stroke="#3113F1" stroke-opacity="0.5" stroke-width="4" stroke-linecap="round" stroke-linejoin="round"/>
</g>
</g>
<g id="Group 124">
<path id="Vector_32" d="M466.461 772.091C466.461 768.983 468.981 766.454 472.097 766.454C475.205 766.454 477.734 768.974 477.734 772.091C477.734 775.207 475.214 777.728 472.097 777.728C468.99 777.728 466.461 775.207 466.461 772.091Z" fill="#3113F1" fill-opacity="0.5"/>
<path id="Vector_33" d="M480.14 780.141C484.584 775.697 484.583 768.491 480.139 764.047C475.695 759.603 468.491 759.603 464.047 764.047C459.603 768.491 459.602 775.697 464.046 780.141C468.49 784.586 475.696 784.586 480.14 780.141Z" stroke="#3113F1" stroke-opacity="0.5" stroke-width="4" stroke-linecap="round" stroke-linejoin="round"/>
</g>
</g>
</g>
<defs>
<filter id="filter0_d_254_1661" x="0" y="229" width="567" height="567" filterUnits="userSpaceOnUse" color-interpolation-filters="sRGB">
<feFlood flood-opacity="0" result="BackgroundImageFix"/>
<feColorMatrix in="SourceAlpha" type="matrix" values="0 0 0 0 0 0 0 0 0 0 0 0 0 0 0 0 0 0 127 0" result="hardAlpha"/>
<feOffset/>
<feGaussianBlur stdDeviation="20"/>
<feComposite in2="hardAlpha" operator="out"/>
<feColorMatrix type="matrix" values="0 0 0 0 0.960784 0 0 0 0 0.960784 0 0 0 0 0.960784 0 0 0 0.43 0"/>
<feBlend mode="normal" in2="BackgroundImageFix" result="effect1_dropShadow_254_1661"/>
<feBlend mode="normal" in="SourceGraphic" in2="effect1_dropShadow_254_1661" result="shape"/>
</filter>
<linearGradient id="paint0_linear_254_1661" x1="723.9" y1="334" x2="723.9" y2="679.457" gradientUnits="userSpaceOnUse">
<stop stop-color="#3113F1"/>
<stop offset="1" stop-color="#883DF2"/>
</linearGradient>
<linearGradient id="paint1_linear_254_1661" x1="723.136" y1="396.671" x2="723.136" y2="604.557" gradientUnits="userSpaceOnUse">
<stop stop-color="#883DF2"/>
<stop offset="1" stop-color="#3113F1"/>
</linearGradient>
<linearGradient id="paint2_linear_254_1661" x1="584.171" y1="121" x2="584.171" y2="345" gradientUnits="userSpaceOnUse">
<stop stop-color="#3113F1"/>
<stop offset="1" stop-color="#883DF2"/>
</linearGradient>
<linearGradient id="paint3_linear_254_1661" x1="584.557" y1="168.117" x2="584.557" y2="297.882" gradientUnits="userSpaceOnUse">
<stop stop-color="#3113F1"/>
<stop offset="1" stop-color="#3113F1"/>
</linearGradient>
<linearGradient id="paint4_linear_254_1661" x1="283.5" y1="269" x2="283.5" y2="756" gradientUnits="userSpaceOnUse">
<stop stop-color="#3113F1"/>
<stop offset="1" stop-color="#883DF2"/>
</linearGradient>
<linearGradient id="paint5_linear_254_1661" x1="283.787" y1="353" x2="283.787" y2="671.811" gradientUnits="userSpaceOnUse">
<stop stop-color="#3113F1"/>
<stop offset="1" stop-color="#883DF2"/>
</linearGradient>
</defs>
</svg>
