<svg width="938" height="675" viewBox="0 0 938 675" fill="none" xmlns="http://www.w3.org/2000/svg">
<circle cx="724.729" cy="385.729" r="166.729" stroke="url(#paint0_linear_254_1661)" stroke-width="12"/>
<path d="M722.735 483.557C720.228 483.557 718.155 482.739 716.516 481.103C714.877 479.467 714.057 477.398 714.057 474.895V459.304C704.801 457.764 696.895 454.492 690.339 449.487C683.783 444.482 678.673 438.13 675.009 430.431C674.045 428.313 674.045 426.1 675.009 423.79C675.973 421.48 677.612 419.844 679.926 418.882C682.047 417.919 684.217 417.919 686.434 418.882C688.652 419.844 690.339 421.384 691.496 423.501C694.967 430.046 699.499 434.954 705.091 438.226C710.683 441.499 717.143 443.135 724.47 443.135C733.726 443.135 741.343 440.825 747.321 436.205C753.299 431.586 756.288 425.234 756.288 417.149C756.288 408.68 753.636 402.135 748.333 397.516C743.031 392.896 733.051 388.18 718.396 383.368C704.512 378.941 694.147 373.07 687.302 365.755C680.456 358.441 677.034 349.298 677.034 338.326C677.034 327.739 680.456 318.885 687.302 311.763C694.147 304.641 703.066 300.598 714.057 299.636V284.333C714.057 281.831 714.877 279.762 716.516 278.126C718.155 276.489 720.228 275.671 722.735 275.671C725.242 275.671 727.315 276.489 728.954 278.126C730.593 279.762 731.412 281.831 731.412 284.333V299.636C738.354 300.598 744.573 302.716 750.069 305.988C755.565 309.26 760.144 313.495 763.808 318.692C765.158 320.617 765.447 322.686 764.676 324.9C763.905 327.113 762.362 328.701 760.048 329.664C757.927 330.626 755.709 330.723 753.395 329.953C751.081 329.183 749.153 327.739 747.61 325.622C744.911 322.157 741.584 319.606 737.631 317.97C733.678 316.334 728.906 315.516 723.313 315.516C714.443 315.516 707.405 317.537 702.198 321.579C696.992 325.622 694.388 331.108 694.388 338.037C694.388 345.352 697.281 351.271 703.066 355.794C708.851 360.317 719.553 364.985 735.173 369.797C748.285 373.84 757.975 379.662 764.242 387.266C770.509 394.869 773.643 404.445 773.643 415.994C773.643 428.121 770.075 437.89 762.941 445.3C755.806 452.711 745.296 457.475 731.412 459.592V474.895C731.412 477.398 730.593 479.467 728.954 481.103C727.315 482.739 725.242 483.557 722.735 483.557Z" fill="url(#paint1_linear_254_1661)"/>
<circle cx="585" cy="112" r="106" stroke="url(#paint2_linear_254_1661)" stroke-width="12"/>
<path d="M567.412 176.883C565.855 176.883 564.567 176.372 563.548 175.351C562.53 174.33 562.02 173.038 562.02 171.476V160.662H544.047C542.489 160.662 541.201 160.152 540.183 159.13C539.164 158.109 538.655 156.817 538.655 155.255C538.655 153.693 539.164 152.402 540.183 151.38C541.201 150.359 542.489 149.848 544.047 149.848H554.831V74.1519H544.047C542.489 74.1519 541.201 73.6413 540.183 72.62C539.164 71.5987 538.655 70.307 538.655 68.745C538.655 67.183 539.164 65.8914 540.183 64.8701C541.201 63.8488 542.489 63.3381 544.047 63.3381H562.02V52.5243C562.02 50.9623 562.53 49.6707 563.548 48.6494C564.567 47.6281 565.855 47.1174 567.412 47.1174C568.97 47.1174 570.258 47.6281 571.277 48.6494C572.295 49.6707 572.804 50.9623 572.804 52.5243V63.3381H592.575V52.5243C592.575 50.9623 593.084 49.6707 594.103 48.6494C595.121 47.6281 596.41 47.1174 597.967 47.1174C599.525 47.1174 600.813 47.6281 601.832 48.6494C602.85 49.6707 603.359 50.9623 603.359 52.5243V63.8788C609.83 65.2005 615.042 68.3846 618.996 73.431C622.95 78.4774 624.927 84.1246 624.927 90.3726C624.927 93.7369 624.268 97.0711 622.95 100.375C621.632 103.68 619.715 106.653 617.199 109.297C621.872 111.7 625.527 115.094 628.163 119.48C630.799 123.865 632.117 128.581 632.117 133.628C632.117 141.197 629.511 147.596 624.298 152.822C619.086 158.049 612.706 160.662 605.157 160.662H603.359V171.476C603.359 173.038 602.85 174.33 601.832 175.351C600.813 176.372 599.525 176.883 597.967 176.883C596.41 176.883 595.121 176.372 594.103 175.351C593.084 174.33 592.575 173.038 592.575 171.476V160.662H572.804V171.476C572.804 173.038 572.295 174.33 571.277 175.351C570.258 176.372 568.97 176.883 567.412 176.883ZM565.615 106.593H597.967C602.521 106.593 606.355 105.001 609.47 101.817C612.586 98.6331 614.143 94.8183 614.143 90.3726C614.143 85.8068 612.586 81.9619 609.47 78.8379C606.355 75.7139 602.521 74.1519 597.967 74.1519H565.615V106.593ZM565.615 149.848H605.157C609.71 149.848 613.544 148.256 616.66 145.072C619.775 141.888 621.333 138.073 621.333 133.628C621.333 129.062 619.775 125.217 616.66 122.093C613.544 118.969 609.71 117.407 605.157 117.407H565.615V149.848Z" fill="url(#paint3_linear_254_1661)"/>
<g filter="url(#filter0_d_254_1661)">
<circle cx="284.329" cy="391.5" r="237.5" stroke="url(#paint4_linear_254_1661)" stroke-width="12"/>
<path fill-rule="evenodd" clip-rule="evenodd" d="M271.384 270.485L194.959 439.844L271.384 452.318V270.485ZM295.118 270.485V452.318L371.542 439.844L295.118 270.485ZM283.251 553.076L207.954 464.001L278.311 475.484C281.583 476.018 284.919 476.018 288.19 475.484L358.548 464.001L283.251 553.076ZM301.279 226.442C294.275 210.92 272.227 210.92 265.223 226.442L169.715 438.088C166.581 445.032 167.718 453.16 172.637 458.979L268.145 571.964C276.046 581.31 290.456 581.31 298.357 571.964L393.865 458.979C398.783 453.16 399.921 445.032 396.786 438.088L301.279 226.442Z" fill="url(#paint5_linear_254_1661)"/>
</g>
<path d="M539.003 614.751L574.003 635L609 614.747L608.997 574.247L573.998 554L539 574.251L539.003 614.751Z" stroke="#3113F1" stroke-opacity="0.5" stroke-width="5" stroke-linecap="round" stroke-linejoin="round"/>
<path d="M275.003 92.7513L310.003 113L345 92.7475L344.997 52.2475L309.998 32L275 52.2513L275.003 92.7513Z" stroke="#3113F1" stroke-opacity="0.5" stroke-width="5" stroke-linecap="round" stroke-linejoin="round"/>
<path d="M850.003 240.001L886.003 261L922 239.997L921.997 197.997L885.998 177L850 198.001L850.003 240.001Z" stroke="#3113F1" stroke-opacity="0.5" stroke-width="5" stroke-linecap="round" stroke-linejoin="round"/>
<path d="M922 325.747C922 321.473 925.464 318 929.747 318C934.021 318 937.493 321.464 937.493 325.747C937.493 330.022 934.03 333.494 929.747 333.494C925.464 333.494 922 330.03 922 325.747Z" fill="#3113F1" fill-opacity="0.5"/>
<path d="M779 80.6226C779 76.4106 782.41 73 786.622 73C790.834 73 794.244 76.4106 794.244 80.6226C794.244 84.8346 790.834 88.2452 786.622 88.2452C782.41 88.2452 779 84.8346 779 80.6226Z" fill="#3113F1" fill-opacity="0.5"/>
<path d="M752.461 164.091C752.461 160.983 754.981 158.454 758.097 158.454C761.205 158.454 763.734 160.974 763.734 164.091C763.734 167.208 761.214 169.728 758.097 169.728C754.99 169.728 752.461 167.208 752.461 164.091Z" fill="#3113F1" fill-opacity="0.5"/>
<path d="M766.14 172.141C770.584 167.697 770.583 160.491 766.139 156.047C761.695 151.603 754.491 151.603 750.047 156.047C745.603 160.491 745.602 167.697 750.046 172.141C754.49 176.586 761.696 176.586 766.14 172.141Z" stroke="#3113F1" stroke-opacity="0.5" stroke-width="4" stroke-linecap="round" stroke-linejoin="round"/>
<path d="M403.461 95.091C403.461 91.9832 405.981 89.4543 409.097 89.4543C412.205 89.4543 414.734 91.9743 414.734 95.091C414.734 98.2077 412.214 100.728 409.097 100.728C405.99 100.728 403.461 98.2077 403.461 95.091Z" fill="#3113F1" fill-opacity="0.5"/>
<path d="M417.14 103.141C421.584 98.6969 421.583 91.4914 417.139 87.0471C412.695 82.6027 405.491 82.6027 401.047 87.0471C396.603 91.4914 396.602 98.6969 401.046 103.141C405.49 107.586 412.696 107.586 417.14 103.141Z" stroke="#3113F1" stroke-opacity="0.5" stroke-width="4" stroke-linecap="round" stroke-linejoin="round"/>
<path d="M419.461 16.091C419.461 12.9832 421.981 10.4543 425.097 10.4543C428.205 10.4543 430.734 12.9743 430.734 16.091C430.734 19.2077 428.214 21.7278 425.097 21.7278C421.99 21.7278 419.461 19.2077 419.461 16.091Z" fill="#3113F1" fill-opacity="0.5"/>
<path d="M433.14 24.1413C437.584 19.6969 437.583 12.4914 433.139 8.04705C428.695 3.60273 421.491 3.60273 417.047 8.04705C412.603 12.4914 412.602 19.6969 417.046 24.1413C421.49 28.5856 428.696 28.5856 433.14 24.1413Z" stroke="#3113F1" stroke-opacity="0.5" stroke-width="4" stroke-linecap="round" stroke-linejoin="round"/>
<path d="M880.461 97.091C880.461 93.9832 882.981 91.4543 886.097 91.4543C889.205 91.4543 891.734 93.9743 891.734 97.091C891.734 100.208 889.214 102.728 886.097 102.728C882.99 102.728 880.461 100.208 880.461 97.091Z" fill="#3113F1" fill-opacity="0.5"/>
<path d="M894.14 105.141C898.584 100.697 898.583 93.4914 894.139 89.0471C889.695 84.6027 882.491 84.6027 878.047 89.0471C873.603 93.4914 873.602 100.697 878.046 105.141C882.49 109.586 889.696 109.586 894.14 105.141Z" stroke="#3113F1" stroke-opacity="0.5" stroke-width="4" stroke-linecap="round" stroke-linejoin="round"/>
<defs>
<filter id="filter0_d_254_1661" x="0.828613" y="108" width="567" height="567" filterUnits="userSpaceOnUse" color-interpolation-filters="sRGB">
<feFlood flood-opacity="0" result="BackgroundImageFix"/>
<feColorMatrix in="SourceAlpha" type="matrix" values="0 0 0 0 0 0 0 0 0 0 0 0 0 0 0 0 0 0 127 0" result="hardAlpha"/>
<feOffset/>
<feGaussianBlur stdDeviation="20"/>
<feComposite in2="hardAlpha" operator="out"/>
<feColorMatrix type="matrix" values="0 0 0 0 0.960784 0 0 0 0 0.960784 0 0 0 0 0.960784 0 0 0 0.43 0"/>
<feBlend mode="normal" in2="BackgroundImageFix" result="effect1_dropShadow_254_1661"/>
<feBlend mode="normal" in="SourceGraphic" in2="effect1_dropShadow_254_1661" result="shape"/>
</filter>
<linearGradient id="paint0_linear_254_1661" x1="724.729" y1="213" x2="724.729" y2="558.457" gradientUnits="userSpaceOnUse">
<stop stop-color="#3113F1"/>
<stop offset="1" stop-color="#883DF2"/>
</linearGradient>
<linearGradient id="paint1_linear_254_1661" x1="723.964" y1="275.671" x2="723.964" y2="483.557" gradientUnits="userSpaceOnUse">
<stop stop-color="#883DF2"/>
<stop offset="1" stop-color="#3113F1"/>
</linearGradient>
<linearGradient id="paint2_linear_254_1661" x1="585" y1="0" x2="585" y2="224" gradientUnits="userSpaceOnUse">
<stop stop-color="#3113F1"/>
<stop offset="1" stop-color="#883DF2"/>
</linearGradient>
<linearGradient id="paint3_linear_254_1661" x1="585.386" y1="47.1174" x2="585.386" y2="176.883" gradientUnits="userSpaceOnUse">
<stop stop-color="#3113F1"/>
<stop offset="1" stop-color="#3113F1"/>
</linearGradient>
<linearGradient id="paint4_linear_254_1661" x1="284.329" y1="148" x2="284.329" y2="635" gradientUnits="userSpaceOnUse">
<stop stop-color="#3113F1"/>
<stop offset="1" stop-color="#883DF2"/>
</linearGradient>
<linearGradient id="paint5_linear_254_1661" x1="283.251" y1="214.801" x2="283.251" y2="578.973" gradientUnits="userSpaceOnUse">
<stop stop-color="#3113F1"/>
<stop offset="1" stop-color="#883DF2"/>
</linearGradient>
</defs>
</svg>
