<svg width="849" height="924" viewBox="0 0 849 924" fill="none" xmlns="http://www.w3.org/2000/svg">
<g id="portada-compu">
<g id="peso">
<circle id="Ellipse 27" cx="438.729" cy="750.729" r="166.729" stroke="url(#paint0_linear_254_1794)" stroke-width="12"/>
<path id="Vector" d="M436.735 848.557C434.228 848.557 432.155 847.739 430.516 846.103C428.877 844.467 428.057 842.398 428.057 839.895V824.304C418.801 822.764 410.895 819.492 404.339 814.487C397.783 809.482 392.673 803.13 389.009 795.431C388.045 793.313 388.045 791.1 389.009 788.79C389.973 786.48 391.612 784.844 393.926 783.882C396.047 782.919 398.217 782.919 400.434 783.882C402.652 784.844 404.339 786.384 405.496 788.501C408.967 795.046 413.499 799.954 419.091 803.226C424.683 806.499 431.143 808.135 438.47 808.135C447.726 808.135 455.343 805.825 461.321 801.205C467.299 796.586 470.288 790.234 470.288 782.149C470.288 773.68 467.636 767.135 462.333 762.516C457.031 757.896 447.051 753.18 432.396 748.368C418.512 743.941 408.147 738.07 401.302 730.755C394.456 723.441 391.034 714.298 391.034 703.326C391.034 692.739 394.456 683.885 401.302 676.763C408.147 669.641 417.066 665.598 428.057 664.636V649.333C428.057 646.831 428.877 644.762 430.516 643.126C432.155 641.489 434.228 640.671 436.735 640.671C439.242 640.671 441.315 641.489 442.954 643.126C444.593 644.762 445.412 646.831 445.412 649.333V664.636C452.354 665.598 458.573 667.716 464.069 670.988C469.565 674.26 474.144 678.495 477.808 683.692C479.158 685.617 479.447 687.686 478.676 689.9C477.905 692.113 476.362 693.701 474.048 694.664C471.927 695.626 469.709 695.723 467.395 694.953C465.081 694.183 463.153 692.739 461.61 690.622C458.911 687.157 455.584 684.606 451.631 682.97C447.678 681.334 442.906 680.516 437.313 680.516C428.443 680.516 421.405 682.537 416.198 686.579C410.992 690.622 408.388 696.108 408.388 703.037C408.388 710.352 411.281 716.271 417.066 720.794C422.851 725.317 433.553 729.985 449.173 734.797C462.285 738.84 471.975 744.662 478.242 752.266C484.509 759.869 487.643 769.445 487.643 780.994C487.643 793.121 484.075 802.89 476.941 810.3C469.806 817.711 459.296 822.475 445.412 824.592V839.895C445.412 842.398 444.593 844.467 442.954 846.103C441.315 847.739 439.242 848.557 436.735 848.557Z" fill="url(#paint1_linear_254_1794)"/>
</g>
<g id="eterium">
<circle id="Ellipse 28" cx="388.414" cy="333.414" r="203.414" stroke="url(#paint2_linear_254_1794)" stroke-width="12"/>
<path id="Vector_2" fill-rule="evenodd" clip-rule="evenodd" d="M377.282 229.339L311.555 374.991L377.282 385.719V229.339ZM397.693 229.339V385.719L463.419 374.991L397.693 229.339ZM387.488 472.373L322.731 395.766L383.239 405.642C386.053 406.101 388.922 406.101 391.736 405.642L452.244 395.766L387.488 472.373ZM402.992 191.462C396.968 178.113 378.007 178.113 371.983 191.462L289.845 373.481C287.149 379.453 288.127 386.443 292.358 391.447L374.496 488.616C381.291 496.654 393.684 496.654 400.479 488.616L482.617 391.447C486.847 386.443 487.825 379.453 485.13 373.481L402.992 191.462Z" fill="url(#paint3_linear_254_1794)"/>
</g>
<g id="fondo">
<g id="grupo1">
<path id="Vector_3" d="M166.003 620.502L213.504 648L261 620.497L260.997 565.497L213.497 538L166 565.502L166.003 620.502Z" stroke="#3113F1" stroke-opacity="0.5" stroke-width="5" stroke-linecap="round" stroke-linejoin="round"/>
<path id="Vector_4" d="M736.003 249.001L772.003 270L808 248.997L807.997 206.997L771.998 186L736 207.001L736.003 249.001Z" stroke="#3113F1" stroke-opacity="0.5" stroke-width="5" stroke-linecap="round" stroke-linejoin="round"/>
</g>
<g id="grupo4">
<path id="Vector_5" d="M478.003 66.0013L514.003 87L550 65.9974L549.997 23.9974L513.998 3L478 24.0013L478.003 66.0013Z" stroke="#3113F1" stroke-opacity="0.5" stroke-width="5" stroke-linecap="round" stroke-linejoin="round"/>
<path id="Vector_6" d="M140.5 216.238C147.859 207.628 146.844 194.683 138.235 187.324C129.626 179.965 116.681 180.98 109.323 189.59C101.965 198.199 102.979 211.145 111.589 218.503C120.198 225.862 133.142 224.848 140.5 216.238Z" fill="#3113F1" fill-opacity="0.5"/>
</g>
<g id="grupo3">
<path id="Vector_7" d="M833 361.747C833 357.473 836.464 354 840.747 354C845.021 354 848.493 357.464 848.493 361.747C848.493 366.022 845.03 369.494 840.747 369.494C836.464 369.494 833 366.03 833 361.747Z" fill="#3113F1" fill-opacity="0.5"/>
<g id="Group 116">
<path id="Vector_8" d="M657.461 276.091C657.461 272.983 659.981 270.454 663.097 270.454C666.205 270.454 668.734 272.974 668.734 276.091C668.734 279.208 666.214 281.728 663.097 281.728C659.99 281.728 657.461 279.208 657.461 276.091Z" fill="#3113F1" fill-opacity="0.5"/>
<path id="Vector_9" d="M671.14 284.141C675.584 279.697 675.583 272.491 671.139 268.047C666.695 263.603 659.491 263.603 655.047 268.047C650.603 272.491 650.602 279.697 655.046 284.141C659.49 288.586 666.696 288.586 671.14 284.141Z" stroke="#3113F1" stroke-opacity="0.5" stroke-width="4" stroke-linecap="round" stroke-linejoin="round"/>
</g>
<g id="Group 119">
<path id="Vector_10" d="M136.461 484.091C136.461 480.983 138.981 478.454 142.097 478.454C145.205 478.454 147.734 480.974 147.734 484.091C147.734 487.208 145.214 489.728 142.097 489.728C138.99 489.728 136.461 487.208 136.461 484.091Z" fill="#3113F1" fill-opacity="0.5"/>
<path id="Vector_11" d="M150.14 492.141C154.584 487.697 154.583 480.491 150.139 476.047C145.695 471.603 138.491 471.603 134.047 476.047C129.603 480.491 129.602 487.697 134.046 492.141C138.49 496.586 145.696 496.586 150.14 492.141Z" stroke="#3113F1" stroke-opacity="0.5" stroke-width="4" stroke-linecap="round" stroke-linejoin="round"/>
</g>
</g>
<g id="gupo2">
<path id="Vector_12" d="M3.00259 339.001L39.0032 360L75 338.997L74.9974 296.997L38.9981 276L3 297.001L3.00259 339.001Z" stroke="#3113F1" stroke-opacity="0.5" stroke-width="5" stroke-linecap="round" stroke-linejoin="round"/>
<path id="Vector_13" d="M657 137.623C657 133.411 660.41 130 664.622 130C668.834 130 672.244 133.411 672.244 137.623C672.244 141.835 668.834 145.245 664.622 145.245C660.41 145.245 657 141.835 657 137.623Z" fill="#3113F1" fill-opacity="0.5"/>
<g id="Group 118">
<path id="Vector_14" d="M192.461 733.091C192.461 729.983 194.981 727.454 198.097 727.454C201.205 727.454 203.734 729.974 203.734 733.091C203.734 736.208 201.214 738.728 198.097 738.728C194.99 738.728 192.461 736.208 192.461 733.091Z" fill="#3113F1" fill-opacity="0.5"/>
<path id="Vector_15" d="M206.14 741.141C210.584 736.697 210.583 729.491 206.139 725.047C201.695 720.603 194.491 720.603 190.047 725.047C185.603 729.491 185.602 736.697 190.046 741.141C194.49 745.586 201.696 745.586 206.14 741.141Z" stroke="#3113F1" stroke-opacity="0.5" stroke-width="4" stroke-linecap="round" stroke-linejoin="round"/>
</g>
</g>
<g id="grupo5">
<path id="Vector_16" d="M255.461 29.091C255.461 25.9832 257.981 23.4543 261.097 23.4543C264.205 23.4543 266.734 25.9743 266.734 29.091C266.734 32.2077 264.214 34.7278 261.097 34.7278C257.99 34.7278 255.461 32.2077 255.461 29.091Z" fill="#3113F1" fill-opacity="0.5"/>
<path id="Vector_17" d="M269.14 37.1413C273.584 32.6969 273.583 25.4914 269.139 21.0471C264.695 16.6027 257.491 16.6027 253.047 21.0471C248.603 25.4914 248.602 32.6969 253.046 37.1413C257.49 41.5856 264.696 41.5856 269.14 37.1413Z" stroke="#3113F1" stroke-opacity="0.5" stroke-width="4" stroke-linecap="round" stroke-linejoin="round"/>
</g>
</g>
<g id="bitcoin">
<circle id="Ellipse 24" cx="697" cy="526" r="129" stroke="url(#paint4_linear_254_1794)" stroke-width="12"/>
<path id="Vector_18" d="M675.801 604.207C673.923 604.207 672.371 603.591 671.143 602.36C669.915 601.129 669.301 599.572 669.301 597.69V584.655H647.637C645.759 584.655 644.207 584.04 642.979 582.809C641.752 581.578 641.138 580.021 641.138 578.138C641.138 576.255 641.752 574.698 642.979 573.467C644.207 572.236 645.759 571.621 647.637 571.621H660.636V480.379H647.637C645.759 480.379 644.207 479.764 642.979 478.533C641.752 477.302 641.138 475.745 641.138 473.862C641.138 471.979 641.752 470.422 642.979 469.191C644.207 467.96 645.759 467.345 647.637 467.345H669.301V454.31C669.301 452.428 669.915 450.871 671.143 449.64C672.371 448.409 673.923 447.793 675.801 447.793C677.678 447.793 679.231 448.409 680.459 449.64C681.686 450.871 682.3 452.428 682.3 454.31V467.345H706.131V454.31C706.131 452.428 706.745 450.871 707.973 449.64C709.2 448.409 710.753 447.793 712.63 447.793C714.508 447.793 716.061 448.409 717.288 449.64C718.516 450.871 719.13 452.428 719.13 454.31V467.997C726.929 469.59 733.212 473.428 737.978 479.51C742.744 485.593 745.127 492.4 745.127 499.931C745.127 503.986 744.333 508.005 742.744 511.988C741.155 515.971 738.844 519.555 735.811 522.741C741.444 525.638 745.849 529.729 749.027 535.016C752.204 540.302 753.793 545.986 753.793 552.069C753.793 561.193 750.652 568.905 744.369 575.205C738.086 581.505 730.395 584.655 721.296 584.655H719.13V597.69C719.13 599.572 718.516 601.129 717.288 602.36C716.061 603.591 714.508 604.207 712.63 604.207C710.753 604.207 709.2 603.591 707.973 602.36C706.745 601.129 706.131 599.572 706.131 597.69V584.655H682.3V597.69C682.3 599.572 681.686 601.129 680.459 602.36C679.231 603.591 677.678 604.207 675.801 604.207ZM673.634 519.483H712.63C718.119 519.483 722.74 517.564 726.496 513.726C730.251 509.888 732.128 505.29 732.128 499.931C732.128 494.428 730.251 489.793 726.496 486.028C722.74 482.262 718.119 480.379 712.63 480.379H673.634V519.483ZM673.634 571.621H721.296C726.785 571.621 731.406 569.702 735.161 565.864C738.917 562.026 740.794 557.428 740.794 552.069C740.794 546.566 738.917 541.931 735.161 538.165C731.406 534.4 726.785 532.517 721.296 532.517H673.634V571.621Z" fill="url(#paint5_linear_254_1794)"/>
</g>
</g>
<defs>
<linearGradient id="paint0_linear_254_1794" x1="438.729" y1="578" x2="438.729" y2="923.457" gradientUnits="userSpaceOnUse">
<stop stop-color="#3113F1"/>
<stop offset="1" stop-color="#883DF2"/>
</linearGradient>
<linearGradient id="paint1_linear_254_1794" x1="437.964" y1="640.671" x2="437.964" y2="848.557" gradientUnits="userSpaceOnUse">
<stop stop-color="#883DF2"/>
<stop offset="1" stop-color="#3113F1"/>
</linearGradient>
<linearGradient id="paint2_linear_254_1794" x1="388.414" y1="124" x2="388.414" y2="542.829" gradientUnits="userSpaceOnUse">
<stop stop-color="#3113F1"/>
<stop offset="1" stop-color="#883DF2"/>
</linearGradient>
<linearGradient id="paint3_linear_254_1794" x1="387.487" y1="181.45" x2="387.487" y2="494.645" gradientUnits="userSpaceOnUse">
<stop stop-color="#3113F1"/>
<stop offset="1" stop-color="#883DF2"/>
</linearGradient>
<linearGradient id="paint4_linear_254_1794" x1="697" y1="391" x2="697" y2="661" gradientUnits="userSpaceOnUse">
<stop stop-color="#3113F1"/>
<stop offset="1" stop-color="#883DF2"/>
</linearGradient>
<linearGradient id="paint5_linear_254_1794" x1="697.465" y1="447.793" x2="697.465" y2="604.207" gradientUnits="userSpaceOnUse">
<stop stop-color="#3113F1"/>
<stop offset="1" stop-color="#3113F1"/>
</linearGradient>
</defs>
</svg>
