<svg width="1920" height="1075" viewBox="0 0 1920 1075" fill="none" xmlns="http://www.w3.org/2000/svg">
<g opacity="0.5">
<mask id="mask0_256_255" style="mask-type:alpha" maskUnits="userSpaceOnUse" x="0" y="0" width="1920" height="1075">
<rect width="1920" height="1075" fill="#D9D9D9"/>
</mask>
<g mask="url(#mask0_256_255)">
<path d="M1970.53 -264L1522 0.0647538L1522.01 214.601L1707.79 321.86L2072.89 108.366" stroke="#3113F1" stroke-opacity="0.5" stroke-width="4" stroke-linecap="round" stroke-linejoin="round"/>
<path d="M1714.55 169.302L1714.54 -18.9024L1551.55 -113L1388.58 -18.8846L1388.59 169.32" stroke="#3113F1" stroke-opacity="0.7" stroke-width="4" stroke-linecap="round" stroke-linejoin="round"/>
<path d="M1380.58 169.32C1380.58 164.894 1384.17 161.305 1388.6 161.305C1393.02 161.305 1396.61 164.894 1396.61 169.32C1396.61 173.746 1393.02 177.334 1388.6 177.334C1384.17 177.334 1380.58 173.746 1380.58 169.32Z" fill="#3113F1" fill-opacity="0.7"/>
<path d="M1708.23 167.61C1708.23 163.184 1711.82 159.596 1716.25 159.596C1720.67 159.596 1724.26 163.184 1724.26 167.61C1724.26 172.036 1720.67 175.624 1716.25 175.624C1711.82 175.624 1708.23 172.036 1708.23 167.61Z" fill="#3113F1" fill-opacity="0.7"/>
<path d="M1405.2 180.401C1411.29 171.237 1408.8 158.873 1399.64 152.785C1390.47 146.697 1378.11 149.19 1372.02 158.353C1365.94 167.517 1368.43 179.881 1377.59 185.969C1386.75 192.057 1399.12 189.564 1405.2 180.401Z" stroke="#3113F1" stroke-opacity="0.7" stroke-width="4" stroke-linecap="round" stroke-linejoin="round"/>
<path d="M1733.04 178.23C1738.93 168.939 1736.17 156.631 1726.88 150.74C1717.59 144.848 1705.29 147.604 1699.4 156.895C1693.5 166.186 1696.26 178.494 1705.55 184.385C1714.84 190.277 1727.15 187.521 1733.04 178.23Z" stroke="#3113F1" stroke-opacity="0.7" stroke-width="4" stroke-linecap="round" stroke-linejoin="round"/>
<path d="M58.5546 93.3019L58.5368 -94.9024L-104.446 -189L-267.419 -94.8846L-267.41 93.3197" stroke="#3113F1" stroke-opacity="0.7" stroke-width="4" stroke-linecap="round" stroke-linejoin="round"/>
<path d="M52.2324 91.6101C52.2324 87.1844 55.8208 83.5957 60.2462 83.5957C64.6716 83.5957 68.26 87.1844 68.26 91.6101C68.26 96.0358 64.6716 99.6245 60.2462 99.6245C55.8208 99.6245 52.2324 96.0358 52.2324 91.6101Z" fill="#3113F1" fill-opacity="0.7"/>
<path d="M77.0389 102.23C82.9302 92.9393 80.1748 80.6312 70.8845 74.7395C61.5942 68.8478 49.2869 71.6035 43.3957 80.8946C37.5044 90.1856 40.2599 102.494 49.5502 108.385C58.8405 114.277 71.1476 111.521 77.0389 102.23Z" stroke="#3113F1" stroke-opacity="0.7" stroke-width="4" stroke-linecap="round" stroke-linejoin="round"/>
<path d="M912 -97.9822L912.009 98.5837L1082.23 196.858L1252.44 98.5659L1252.43 -98" stroke="#3113F1" stroke-opacity="0.5" stroke-width="4" stroke-linecap="round" stroke-linejoin="round"/>
<path d="M-170 -65.9822L-169.991 130.584L0.23024 228.858L170.443 130.566L170.434 -66" stroke="#3113F1" stroke-width="4" stroke-linecap="round" stroke-linejoin="round"/>
<path d="M728.411 65.9234L876.416 150.916L1024.41 65.914V-104.081L876.406 -189.084L728.411 -104.081V65.9234Z" stroke="#3113F1" stroke-opacity="0.7" stroke-width="4" stroke-linecap="round" stroke-linejoin="round"/>
<path d="M1815 394.001L1851 415L1887 393.997L1887 351.997L1851 331L1815 352.001L1815 394.001Z" stroke="#3113F1" stroke-opacity="0.5" stroke-width="5" stroke-linecap="round" stroke-linejoin="round"/>
<path d="M982 264.747C982 260.473 985.464 257 989.747 257C994.021 257 997.493 260.464 997.493 264.747C997.493 269.022 994.03 272.494 989.747 272.494C985.464 272.494 982 269.03 982 264.747Z" fill="#3113F1" fill-opacity="0.5"/>
<path d="M1464 291.747C1464 287.473 1467.46 284 1471.75 284C1476.02 284 1479.49 287.464 1479.49 291.747C1479.49 296.022 1476.03 299.494 1471.75 299.494C1467.46 299.494 1464 296.03 1464 291.747Z" fill="#3113F1" fill-opacity="0.5"/>
<path d="M1774 338.747C1774 334.473 1777.46 331 1781.75 331C1786.02 331 1789.49 334.464 1789.49 338.747C1789.49 343.022 1786.03 346.494 1781.75 346.494C1777.46 346.494 1774 343.03 1774 338.747Z" fill="#3113F1" fill-opacity="0.5"/>
<path d="M1271 205.747C1271 201.473 1274.46 198 1278.75 198C1283.02 198 1286.49 201.464 1286.49 205.747C1286.49 210.022 1283.03 213.494 1278.75 213.494C1274.46 213.494 1271 210.03 1271 205.747Z" fill="#3113F1" fill-opacity="0.5"/>
</g>
</g>
</svg>
