<svg width="869" height="699" viewBox="0 0 869 699" fill="none" xmlns="http://www.w3.org/2000/svg">
<circle cx="657.729" cy="442.729" r="166.729" stroke="url(#paint0_linear_254_1661)" stroke-width="12"/>
<path d="M655.735 540.557C653.229 540.557 651.156 539.739 649.517 538.103C647.877 536.467 647.058 534.398 647.058 531.895V516.304C637.802 514.764 629.896 511.492 623.339 506.487C616.783 501.482 611.673 495.13 608.009 487.431C607.045 485.313 607.045 483.1 608.009 480.79C608.973 478.48 610.612 476.844 612.926 475.882C615.048 474.919 617.217 474.919 619.435 475.882C621.652 476.844 623.339 478.384 624.496 480.501C627.967 487.046 632.499 491.954 638.091 495.226C643.683 498.499 650.143 500.135 657.471 500.135C666.727 500.135 674.344 497.825 680.322 493.205C686.299 488.586 689.288 482.234 689.288 474.149C689.288 465.68 686.637 459.135 681.334 454.516C676.031 449.896 666.052 445.18 651.397 440.368C637.513 435.941 627.148 430.07 620.302 422.755C613.457 415.441 610.034 406.298 610.034 395.326C610.034 384.739 613.457 375.885 620.302 368.763C627.148 361.641 636.066 357.598 647.058 356.636V341.333C647.058 338.831 647.877 336.762 649.517 335.126C651.156 333.489 653.229 332.671 655.735 332.671C658.242 332.671 660.315 333.489 661.954 335.126C663.593 336.762 664.413 338.831 664.413 341.333V356.636C671.355 357.598 677.574 359.716 683.069 362.988C688.565 366.26 693.145 370.495 696.809 375.692C698.159 377.617 698.448 379.686 697.677 381.9C696.905 384.113 695.363 385.701 693.049 386.664C690.927 387.626 688.71 387.723 686.396 386.953C684.082 386.183 682.154 384.739 680.611 382.622C677.911 379.157 674.585 376.606 670.632 374.97C666.679 373.334 661.906 372.516 656.314 372.516C647.444 372.516 640.405 374.537 635.199 378.579C629.992 382.622 627.389 388.108 627.389 395.037C627.389 402.352 630.281 408.271 636.066 412.794C641.851 417.317 652.554 421.985 668.173 426.797C681.286 430.84 690.976 436.662 697.243 444.266C703.51 451.869 706.643 461.445 706.643 472.994C706.643 485.121 703.076 494.89 695.941 502.3C688.806 509.711 678.297 514.475 664.413 516.592V531.895C664.413 534.398 663.593 536.467 661.954 538.103C660.315 539.739 658.242 540.557 655.735 540.557Z" fill="url(#paint1_linear_254_1661)"/>
<circle cx="539" cy="135" r="129" stroke="url(#paint2_linear_254_1661)" stroke-width="12"/>
<path d="M517.801 213.207C515.923 213.207 514.371 212.591 513.143 211.36C511.915 210.129 511.301 208.572 511.301 206.69V193.655H489.637C487.759 193.655 486.207 193.04 484.979 191.809C483.752 190.578 483.138 189.021 483.138 187.138C483.138 185.255 483.752 183.698 484.979 182.467C486.207 181.236 487.759 180.621 489.637 180.621H502.636V89.3793H489.637C487.759 89.3793 486.207 88.7638 484.979 87.5327C483.752 86.3017 483.138 84.7448 483.138 82.8621C483.138 80.9793 483.752 79.4224 484.979 78.1914C486.207 76.9603 487.759 76.3448 489.637 76.3448H511.301V63.3103C511.301 61.4276 511.915 59.8707 513.143 58.6396C514.371 57.4086 515.923 56.7931 517.801 56.7931C519.678 56.7931 521.231 57.4086 522.459 58.6396C523.686 59.8707 524.3 61.4276 524.3 63.3103V76.3448H548.131V63.3103C548.131 61.4276 548.745 59.8707 549.973 58.6396C551.2 57.4086 552.753 56.7931 554.63 56.7931C556.508 56.7931 558.061 57.4086 559.288 58.6396C560.516 59.8707 561.13 61.4276 561.13 63.3103V76.9965C568.929 78.5896 575.212 82.4276 579.978 88.5103C584.744 94.5931 587.127 101.4 587.127 108.931C587.127 112.986 586.333 117.005 584.744 120.988C583.155 124.971 580.844 128.555 577.811 131.741C583.444 134.638 587.849 138.729 591.027 144.016C594.204 149.302 595.793 154.986 595.793 161.069C595.793 170.193 592.652 177.905 586.369 184.205C580.086 190.505 572.395 193.655 563.296 193.655H561.13V206.69C561.13 208.572 560.516 210.129 559.288 211.36C558.061 212.591 556.508 213.207 554.63 213.207C552.753 213.207 551.2 212.591 549.973 211.36C548.745 210.129 548.131 208.572 548.131 206.69V193.655H524.3V206.69C524.3 208.572 523.686 210.129 522.459 211.36C521.231 212.591 519.678 213.207 517.801 213.207ZM515.634 128.483H554.63C560.119 128.483 564.74 126.564 568.496 122.726C572.251 118.888 574.128 114.29 574.128 108.931C574.128 103.428 572.251 98.7931 568.496 95.0276C564.74 91.2621 560.119 89.3793 554.63 89.3793H515.634V128.483ZM515.634 180.621H563.296C568.785 180.621 573.406 178.702 577.161 174.864C580.917 171.026 582.794 166.428 582.794 161.069C582.794 155.566 580.917 150.931 577.161 147.165C573.406 143.4 568.785 141.517 563.296 141.517H515.634V180.621Z" fill="url(#paint3_linear_254_1661)"/>
<g filter="url(#filter0_d_254_1661)">
<circle cx="249.414" cy="357.414" r="203.414" stroke="url(#paint4_linear_254_1661)" stroke-width="12"/>
<path fill-rule="evenodd" clip-rule="evenodd" d="M238.282 253.339L172.555 398.991L238.282 409.719V253.339ZM258.693 253.339V409.719L324.419 398.991L258.693 253.339ZM248.488 496.373L183.731 419.766L244.239 429.642C247.053 430.101 249.922 430.101 252.736 429.642L313.244 419.766L248.488 496.373ZM263.992 215.462C257.968 202.113 239.007 202.113 232.983 215.462L150.845 397.481C148.149 403.453 149.127 410.443 153.358 415.447L235.496 512.616C242.291 520.654 254.684 520.654 261.479 512.616L343.617 415.447C347.847 410.443 348.825 403.453 346.13 397.481L263.992 215.462Z" fill="url(#paint5_linear_254_1661)"/>
</g>
<path d="M404.003 623.502L451.504 651L499 623.497L498.997 568.497L451.497 541L404 568.502L404.003 623.502Z" stroke="#3113F1" stroke-opacity="0.5" stroke-width="5" stroke-linecap="round" stroke-linejoin="round"/>
<path d="M781.003 240.001L817.003 261L853 239.997L852.997 197.997L816.998 177L781 198.001L781.003 240.001Z" stroke="#3113F1" stroke-opacity="0.5" stroke-width="5" stroke-linecap="round" stroke-linejoin="round"/>
<path d="M589.5 683.238C596.859 674.628 595.844 661.683 587.235 654.324C578.626 646.965 565.681 647.98 558.323 656.59C550.965 665.199 551.979 678.145 560.589 685.503C569.198 692.862 582.142 691.848 589.5 683.238Z" fill="#3113F1" fill-opacity="0.5"/>
<path d="M853 325.747C853 321.473 856.464 318 860.747 318C865.021 318 868.493 321.464 868.493 325.747C868.493 330.022 865.03 333.494 860.747 333.494C856.464 333.494 853 330.03 853 325.747Z" fill="#3113F1" fill-opacity="0.5"/>
<path d="M710 80.6226C710 76.4106 713.41 73 717.622 73C721.834 73 725.244 76.4106 725.244 80.6226C725.244 84.8346 721.834 88.2452 717.622 88.2452C713.41 88.2452 710 84.8346 710 80.6226Z" fill="#3113F1" fill-opacity="0.5"/>
<path d="M710.461 219.091C710.461 215.983 712.981 213.454 716.097 213.454C719.205 213.454 721.734 215.974 721.734 219.091C721.734 222.208 719.214 224.728 716.097 224.728C712.99 224.728 710.461 222.208 710.461 219.091Z" fill="#3113F1" fill-opacity="0.5"/>
<path d="M724.14 227.141C728.584 222.697 728.583 215.491 724.139 211.047C719.695 206.603 712.491 206.603 708.047 211.047C703.603 215.491 703.602 222.697 708.046 227.141C712.49 231.586 719.696 231.586 724.14 227.141Z" stroke="#3113F1" stroke-opacity="0.5" stroke-width="4" stroke-linecap="round" stroke-linejoin="round"/>
<path d="M334.461 95.091C334.461 91.9832 336.981 89.4543 340.097 89.4543C343.205 89.4543 345.734 91.9743 345.734 95.091C345.734 98.2077 343.214 100.728 340.097 100.728C336.99 100.728 334.461 98.2077 334.461 95.091Z" fill="#3113F1" fill-opacity="0.5"/>
<path d="M348.14 103.141C352.584 98.6969 352.583 91.4914 348.139 87.0471C343.695 82.6027 336.491 82.6027 332.047 87.0471C327.603 91.4914 327.602 98.6969 332.046 103.141C336.49 107.586 343.696 107.586 348.14 103.141Z" stroke="#3113F1" stroke-opacity="0.5" stroke-width="4" stroke-linecap="round" stroke-linejoin="round"/>
<path d="M302.461 635.091C302.461 631.983 304.981 629.454 308.097 629.454C311.205 629.454 313.734 631.974 313.734 635.091C313.734 638.208 311.214 640.728 308.097 640.728C304.99 640.728 302.461 638.208 302.461 635.091Z" fill="#3113F1" fill-opacity="0.5"/>
<path d="M316.14 643.141C320.584 638.697 320.583 631.491 316.139 627.047C311.695 622.603 304.491 622.603 300.047 627.047C295.603 631.491 295.602 638.697 300.046 643.141C304.49 647.586 311.696 647.586 316.14 643.141Z" stroke="#3113F1" stroke-opacity="0.5" stroke-width="4" stroke-linecap="round" stroke-linejoin="round"/>
<defs>
<filter id="filter0_d_254_1661" x="0" y="108" width="498.828" height="498.829" filterUnits="userSpaceOnUse" color-interpolation-filters="sRGB">
<feFlood flood-opacity="0" result="BackgroundImageFix"/>
<feColorMatrix in="SourceAlpha" type="matrix" values="0 0 0 0 0 0 0 0 0 0 0 0 0 0 0 0 0 0 127 0" result="hardAlpha"/>
<feOffset/>
<feGaussianBlur stdDeviation="20"/>
<feComposite in2="hardAlpha" operator="out"/>
<feColorMatrix type="matrix" values="0 0 0 0 0.960784 0 0 0 0 0.960784 0 0 0 0 0.960784 0 0 0 0.43 0"/>
<feBlend mode="normal" in2="BackgroundImageFix" result="effect1_dropShadow_254_1661"/>
<feBlend mode="normal" in="SourceGraphic" in2="effect1_dropShadow_254_1661" result="shape"/>
</filter>
<linearGradient id="paint0_linear_254_1661" x1="657.729" y1="270" x2="657.729" y2="615.457" gradientUnits="userSpaceOnUse">
<stop stop-color="#3113F1"/>
<stop offset="1" stop-color="#883DF2"/>
</linearGradient>
<linearGradient id="paint1_linear_254_1661" x1="656.965" y1="332.671" x2="656.965" y2="540.557" gradientUnits="userSpaceOnUse">
<stop stop-color="#883DF2"/>
<stop offset="1" stop-color="#3113F1"/>
</linearGradient>
<linearGradient id="paint2_linear_254_1661" x1="539" y1="0" x2="539" y2="270" gradientUnits="userSpaceOnUse">
<stop stop-color="#3113F1"/>
<stop offset="1" stop-color="#883DF2"/>
</linearGradient>
<linearGradient id="paint3_linear_254_1661" x1="539.465" y1="56.7931" x2="539.465" y2="213.207" gradientUnits="userSpaceOnUse">
<stop stop-color="#3113F1"/>
<stop offset="1" stop-color="#3113F1"/>
</linearGradient>
<linearGradient id="paint4_linear_254_1661" x1="249.414" y1="148" x2="249.414" y2="566.829" gradientUnits="userSpaceOnUse">
<stop stop-color="#3113F1"/>
<stop offset="1" stop-color="#883DF2"/>
</linearGradient>
<linearGradient id="paint5_linear_254_1661" x1="248.487" y1="205.45" x2="248.487" y2="518.645" gradientUnits="userSpaceOnUse">
<stop stop-color="#3113F1"/>
<stop offset="1" stop-color="#883DF2"/>
</linearGradient>
</defs>
</svg>
