<svg width="290" height="296" viewBox="0 0 290 296" fill="none" xmlns="http://www.w3.org/2000/svg">
<mask id="mask0_321_287" style="mask-type:alpha" maskUnits="userSpaceOnUse" x="0" y="0" width="290" height="290">
<circle cx="145" cy="145" r="139" stroke="black" stroke-width="12"/>
<path d="M194.263 177.45C193.025 176.217 192.407 174.709 192.407 172.928C192.407 171.146 193.025 169.707 194.263 168.611L210.76 152.167H144.771C142.984 152.167 141.506 151.584 140.338 150.419C139.169 149.255 138.585 147.781 138.585 146C138.585 144.219 139.169 142.745 140.338 141.581C141.506 140.416 142.984 139.833 144.771 139.833H210.347L193.644 123.183C192.544 122.087 191.994 120.682 191.994 118.969C191.994 117.256 192.613 115.783 193.85 114.55C195.088 113.317 196.565 112.7 198.284 112.7C200.002 112.7 201.48 113.317 202.718 114.55L230.144 141.889C230.831 142.574 231.313 143.259 231.588 143.944C231.863 144.63 232 145.383 232 146.206C232 147.028 231.863 147.781 231.588 148.467C231.313 149.152 230.831 149.837 230.144 150.522L202.924 177.656C201.824 178.752 200.415 179.3 198.696 179.3C196.978 179.3 195.5 178.683 194.263 177.45ZM98.3729 220C95.0734 220 92.1864 218.767 89.7119 216.3C87.2373 213.833 86 210.956 86 207.667V84.3333C86 81.0444 87.2373 78.1667 89.7119 75.7C92.1864 73.2333 95.0734 72 98.3729 72H152.195C153.982 72 155.46 72.5824 156.629 73.7472C157.797 74.912 158.381 76.3852 158.381 78.1667C158.381 79.9481 157.797 81.4213 156.629 82.5861C155.46 83.7509 153.982 84.3333 152.195 84.3333H98.3729V207.667H152.195C153.982 207.667 155.46 208.249 156.629 209.414C157.797 210.579 158.381 212.052 158.381 213.833C158.381 215.615 157.797 217.088 156.629 218.253C155.46 219.418 153.982 220 152.195 220H98.3729Z" fill="black"/>
</mask>
<g mask="url(#mask0_321_287)">
<rect width="290" height="296" fill="url(#paint0_linear_321_287)"/>
</g>
<defs>
<linearGradient id="paint0_linear_321_287" x1="145" y1="0" x2="145" y2="296" gradientUnits="userSpaceOnUse">
<stop stop-color="#3113F1"/>
<stop offset="1" stop-color="#883DF2"/>
</linearGradient>
</defs>
</svg>
