<svg width="290" height="296" viewBox="0 0 290 296" fill="none" xmlns="http://www.w3.org/2000/svg">
<mask id="mask0_44_53" style="mask-type:alpha" maskUnits="userSpaceOnUse" x="0" y="0" width="290" height="290">
<circle cx="145" cy="145" r="139" stroke="black" stroke-width="12"/>
<path d="M145 68C154.71 68 162.977 71.4109 169.798 78.2328C176.62 85.0547 180.031 93.3208 180.031 103.031V120.731H192.938C196.01 120.731 198.622 121.807 200.773 123.958C202.924 126.109 204 128.721 204 131.794V211.812C204 214.885 202.924 217.497 200.773 219.648C198.622 221.799 196.01 222.875 192.938 222.875H97.0625C93.9896 222.875 91.3776 221.799 89.2266 219.648C87.0755 217.497 86 214.885 86 211.812V131.794C86 128.721 87.0755 126.109 89.2266 123.958C91.3776 121.807 93.9896 120.731 97.0625 120.731H109.969V103.031C109.969 93.3208 113.38 85.0547 120.202 78.2328C127.023 71.4109 135.29 68 145 68ZM145 79.0625C138.362 79.0625 132.708 81.3979 128.037 86.0688C123.367 90.7396 121.031 96.3937 121.031 103.031V120.731H168.969V103.031C168.969 96.3937 166.633 90.7396 161.963 86.0688C157.292 81.3979 151.637 79.0625 145 79.0625ZM97.0625 211.812H192.938V131.794H97.0625V211.812ZM145 157.606C141.067 157.606 137.717 159.112 134.952 162.123C132.186 165.135 130.803 168.484 130.803 172.172C130.803 175.982 132.186 179.24 134.952 181.944C137.717 184.648 141.067 186 145 186C148.933 186 152.283 184.648 155.048 181.944C157.814 179.24 159.197 175.982 159.197 172.172C159.197 168.484 157.814 165.135 155.048 162.123C152.283 159.112 148.933 157.606 145 157.606ZM97.0625 131.794V211.812V131.794Z" fill="white"/>
</mask>
<g mask="url(#mask0_44_53)">
<rect width="290" height="296" fill="url(#paint0_linear_44_53)"/>
</g>
<defs>
<linearGradient id="paint0_linear_44_53" x1="145" y1="0" x2="145" y2="296" gradientUnits="userSpaceOnUse">
<stop stop-color="#3113F1"/>
<stop offset="1" stop-color="#883DF2"/>
</linearGradient>
</defs>
</svg>
