<svg width="1837" height="381" viewBox="0 0 1837 381" fill="none" xmlns="http://www.w3.org/2000/svg">
<path d="M1748.97 331.141L1785.55 352.317L1822.12 331.137L1822.12 288.781L1785.54 267.606L1748.96 288.785L1748.97 331.141Z" stroke="#3113F1" stroke-opacity="0.5" stroke-width="5" stroke-linecap="round" stroke-linejoin="round"/>
<path d="M1779 120.517L1806.73 136.689L1834.45 120.514L1834.44 88.1701L1806.72 72L1779 88.1732L1779 120.517Z" stroke="#3113F1" stroke-opacity="0.5" stroke-width="5" stroke-linecap="round" stroke-linejoin="round"/>
<path d="M1723.55 214.47L1751.28 230.641L1779 214.467L1779 182.123L1751.27 165.953L1723.55 182.126L1723.55 214.47Z" stroke="#3113F1" stroke-opacity="0.5" stroke-width="5" stroke-linecap="round" stroke-linejoin="round"/>
<path d="M3.00199 145.091L30.7262 161.262L58.4474 145.088L58.4454 112.743L30.7222 96.5732L3 112.746L3.00199 145.091Z" stroke="#3113F1" stroke-opacity="0.5" stroke-width="5" stroke-linecap="round" stroke-linejoin="round"/>
<path d="M58.4494 239.813L86.1736 255.984L113.895 239.81L113.893 207.466L86.1696 191.296L58.4474 207.469L58.4494 239.813Z" stroke="#3113F1" stroke-opacity="0.5" stroke-width="5" stroke-linecap="round" stroke-linejoin="round"/>
<path d="M56.5224 42.0792C62.189 35.4487 61.4078 25.4796 54.7778 19.8126C48.1477 14.1456 38.1794 14.9265 32.5128 21.5571C26.8463 28.1876 27.6273 38.1568 34.2573 43.8238C40.8874 49.4908 50.8558 48.7097 56.5224 42.0792Z" fill="#3113F1" fill-opacity="0.5"/>
<path d="M1712 262.021C1712 258.729 1714.67 256.054 1717.97 256.054C1721.26 256.054 1723.93 258.722 1723.93 262.021C1723.93 265.312 1721.26 267.987 1717.97 267.987C1714.67 267.987 1712 265.319 1712 262.021Z" fill="#3113F1" fill-opacity="0.5"/>
<path d="M1723.55 375.13C1723.55 371.886 1726.18 369.26 1729.42 369.26C1732.66 369.26 1735.29 371.886 1735.29 375.13C1735.29 378.373 1732.66 381 1729.42 381C1726.18 381 1723.55 378.373 1723.55 375.13Z" fill="#3113F1" fill-opacity="0.5"/>
<path d="M43.0453 296.509C43.0453 293.265 45.6717 290.639 48.9151 290.639C52.1585 290.639 54.7849 293.265 54.7849 296.509C54.7849 299.753 52.1585 302.379 48.9151 302.379C45.6717 302.379 43.0453 299.753 43.0453 296.509Z" fill="#3113F1" fill-opacity="0.5"/>
<path d="M112.71 12.7016C112.71 10.3083 114.65 8.36084 117.05 8.36084C119.443 8.36084 121.391 10.3014 121.391 12.7016C121.391 15.1018 119.45 17.0426 117.05 17.0426C114.657 17.0426 112.71 15.1018 112.71 12.7016Z" fill="#3113F1" fill-opacity="0.5"/>
<path d="M123.243 18.9014C126.666 15.4788 126.666 9.92978 123.243 6.50719C119.821 3.0846 114.273 3.0846 110.85 6.50719C107.428 9.92978 107.428 15.4788 110.85 18.9014C114.272 22.324 119.821 22.324 123.243 18.9014Z" stroke="#3113F1" stroke-opacity="0.5" stroke-width="4" stroke-linecap="round" stroke-linejoin="round"/>
<path d="M112.71 84.3215C112.71 81.9282 114.65 79.9807 117.05 79.9807C119.443 79.9807 121.391 81.9213 121.391 84.3215C121.391 86.7217 119.45 88.6624 117.05 88.6624C114.657 88.6624 112.71 86.7217 112.71 84.3215Z" fill="#3113F1" fill-opacity="0.5"/>
<path d="M123.243 90.5213C126.666 87.0987 126.666 81.5496 123.243 78.1271C119.821 74.7045 114.273 74.7045 110.85 78.1271C107.428 81.5496 107.428 87.0987 110.85 90.5213C114.272 93.9438 119.821 93.9438 123.243 90.5213Z" stroke="#3113F1" stroke-opacity="0.5" stroke-width="4" stroke-linecap="round" stroke-linejoin="round"/>
<path d="M105.009 155.941C105.009 153.548 106.949 151.6 109.349 151.6C111.742 151.6 113.69 153.541 113.69 155.941C113.69 158.341 111.749 160.282 109.349 160.282C106.956 160.282 105.009 158.341 105.009 155.941Z" fill="#3113F1" fill-opacity="0.5"/>
<path d="M115.542 162.141C118.965 158.718 118.965 153.169 115.542 149.746C112.12 146.324 106.572 146.324 103.149 149.746C99.7269 153.169 99.7268 158.718 103.149 162.141C106.571 165.563 112.12 165.563 115.542 162.141Z" stroke="#3113F1" stroke-opacity="0.5" stroke-width="4" stroke-linecap="round" stroke-linejoin="round"/>
<path d="M26.458 236.031C26.458 233.638 28.3985 231.691 30.7985 231.691C33.1916 231.691 35.1391 233.631 35.1391 236.031C35.1391 238.432 33.1985 240.372 30.7985 240.372C28.4054 240.372 26.458 238.432 26.458 236.031Z" fill="#3113F1" fill-opacity="0.5"/>
<path d="M36.992 242.231C40.4143 238.809 40.4142 233.26 36.9919 229.837C33.5695 226.414 28.0211 226.414 24.5987 229.837C21.1764 233.26 21.1763 238.809 24.5986 242.231C28.0209 245.654 33.5697 245.654 36.992 242.231Z" stroke="#3113F1" stroke-opacity="0.5" stroke-width="4" stroke-linecap="round" stroke-linejoin="round"/>
<path d="M1817.86 182.965C1817.86 180.571 1819.8 178.624 1822.2 178.624C1824.59 178.624 1826.54 180.564 1826.54 182.965C1826.54 185.365 1824.6 187.306 1822.2 187.306C1819.81 187.306 1817.86 185.365 1817.86 182.965Z" fill="#3113F1" fill-opacity="0.5"/>
<path d="M1828.39 189.164C1831.82 185.742 1831.82 180.193 1828.39 176.77C1824.97 173.348 1819.42 173.348 1816 176.77C1812.58 180.193 1812.58 185.742 1816 189.164C1819.42 192.587 1824.97 192.587 1828.39 189.164Z" stroke="#3113F1" stroke-opacity="0.5" stroke-width="4" stroke-linecap="round" stroke-linejoin="round"/>
</svg>
