<svg width="360" height="423" viewBox="0 0 360 423" fill="none" xmlns="http://www.w3.org/2000/svg">
<path d="M15.0014 67.0007L34.0017 78L53 66.9986L52.9986 44.9986L33.999 34L15 45.0007L15.0014 67.0007Z" stroke="#3113F1" stroke-opacity="0.5" stroke-width="5" stroke-linecap="round" stroke-linejoin="round"/>
<path d="M62.3708 106.183C66.2352 101.661 65.7025 94.8626 61.181 90.9979C56.6596 87.1332 49.8616 87.6658 45.9971 92.1876C42.1327 96.7094 42.6654 103.508 47.1868 107.373C51.7083 111.237 58.5064 110.705 62.3708 106.183Z" fill="#3113F1" fill-opacity="0.5"/>
<path d="M26 164C26 161.79 27.7897 160 30 160C32.2103 160 34 161.79 34 164C34 166.21 32.2103 168 30 168C27.7897 168 26 166.21 26 164Z" fill="#3113F1" fill-opacity="0.5"/>
<path d="M23 100C23 97.7897 24.7897 96 27 96C29.2103 96 31 97.7897 31 100C31 102.21 29.2103 104 27 104C24.7897 104 23 102.21 23 100Z" fill="#3113F1" fill-opacity="0.5"/>
<path d="M79 81C79 78.7897 80.7897 77 83 77C85.2103 77 87 78.7897 87 81C87 83.2103 85.2103 85 83 85C80.7897 85 79 83.2103 79 81Z" fill="#3113F1" fill-opacity="0.5"/>
<path d="M80.4941 47.4505C80.4941 45.8183 81.8175 44.4902 83.4542 44.4902C85.0862 44.4902 86.4143 45.8137 86.4143 47.4505C86.4143 49.0873 85.0909 50.4109 83.4542 50.4109C81.8221 50.4109 80.4941 49.0873 80.4941 47.4505Z" fill="#3113F1" fill-opacity="0.5"/>
<path d="M87.6777 51.6788C90.0116 49.3447 90.0115 45.5605 87.6776 43.2264C85.3437 40.8923 81.5598 40.8923 79.2259 43.2264C76.892 45.5605 76.8919 49.3447 79.2258 51.6788C81.5597 54.0129 85.3438 54.0129 87.6777 51.6788Z" stroke="#3113F1" stroke-opacity="0.5" stroke-width="4" stroke-linecap="round" stroke-linejoin="round"/>
<path d="M30.998 128.753C30.998 127.121 32.3214 125.793 33.9581 125.793C35.5901 125.793 36.9182 127.116 36.9182 128.753C36.9182 130.39 35.5948 131.714 33.9581 131.714C32.326 131.714 30.998 130.39 30.998 128.753Z" fill="#3113F1" fill-opacity="0.5"/>
<path d="M38.1816 132.982C40.5155 130.647 40.5154 126.863 38.1815 124.529C35.8476 122.195 32.0637 122.195 29.7298 124.529C27.3959 126.863 27.3958 130.647 29.7297 132.982C32.0636 135.316 35.8477 135.316 38.1816 132.982Z" stroke="#3113F1" stroke-opacity="0.5" stroke-width="4" stroke-linecap="round" stroke-linejoin="round"/>
<path d="M344.902 356.999L325.902 346L306.903 357.001L306.905 379.001L325.904 390L344.903 378.999L344.902 356.999Z" stroke="#3113F1" stroke-opacity="0.5" stroke-width="5" stroke-linecap="round" stroke-linejoin="round"/>
<path d="M297.533 317.817C293.668 322.339 294.201 329.137 298.722 333.002C303.244 336.867 310.042 336.334 313.906 331.812C317.771 327.291 317.238 320.492 312.717 316.627C308.195 312.763 301.397 313.295 297.533 317.817Z" fill="#3113F1" fill-opacity="0.5"/>
<path d="M333.903 260C333.903 262.21 332.114 264 329.903 264C327.693 264 325.903 262.21 325.903 260C325.903 257.79 327.693 256 329.903 256C332.114 256 333.903 257.79 333.903 260Z" fill="#3113F1" fill-opacity="0.5"/>
<path d="M336.903 324C336.903 326.21 335.114 328 332.903 328C330.693 328 328.903 326.21 328.903 324C328.903 321.79 330.693 320 332.903 320C335.114 320 336.903 321.79 336.903 324Z" fill="#3113F1" fill-opacity="0.5"/>
<path d="M280.903 343C280.903 345.21 279.114 347 276.903 347C274.693 347 272.903 345.21 272.903 343C272.903 340.79 274.693 339 276.903 339C279.114 339 280.903 340.79 280.903 343Z" fill="#3113F1" fill-opacity="0.5"/>
<path d="M279.409 376.55C279.409 378.182 278.086 379.51 276.449 379.51C274.817 379.51 273.489 378.186 273.489 376.55C273.489 374.913 274.812 373.589 276.449 373.589C278.081 373.589 279.409 374.913 279.409 376.55Z" fill="#3113F1" fill-opacity="0.5"/>
<path d="M272.226 372.321C269.892 374.655 269.892 378.44 272.226 380.774C274.56 383.108 278.343 383.108 280.677 380.774C283.011 378.44 283.011 374.655 280.677 372.321C278.344 369.987 274.56 369.987 272.226 372.321Z" stroke="#3113F1" stroke-opacity="0.5" stroke-width="4" stroke-linecap="round" stroke-linejoin="round"/>
<path d="M328.905 295.247C328.905 296.879 327.582 298.207 325.945 298.207C324.313 298.207 322.985 296.884 322.985 295.247C322.985 293.61 324.309 292.286 325.945 292.286C327.577 292.286 328.905 293.61 328.905 295.247Z" fill="#3113F1" fill-opacity="0.5"/>
<path d="M321.722 291.018C319.388 293.353 319.388 297.137 321.722 299.471C324.056 301.805 327.84 301.805 330.173 299.471C332.507 297.137 332.507 293.353 330.174 291.018C327.84 288.684 324.056 288.684 321.722 291.018Z" stroke="#3113F1" stroke-opacity="0.5" stroke-width="4" stroke-linecap="round" stroke-linejoin="round"/>
</svg>
