<svg width="960" height="566" viewBox="0 0 960 566" fill="none" xmlns="http://www.w3.org/2000/svg">
<path d="M53.2672 318.207L77.9587 332.61L102.648 318.205L102.646 289.398L77.9551 274.997L53.2654 289.401L53.2672 318.207Z" stroke="#3113F1" stroke-opacity="0.5" stroke-width="5" stroke-linecap="round" stroke-linejoin="round"/>
<path d="M62.6434 202.21L87.3349 216.613L112.024 202.208L112.022 173.401L87.3314 159L62.6416 173.404L62.6434 202.21Z" stroke="#3113F1" stroke-opacity="0.5" stroke-width="5" stroke-linecap="round" stroke-linejoin="round"/>
<path d="M146.643 115.399L165.792 126.531L184.938 115.397L184.937 93.1313L165.789 82L146.642 93.1334L146.643 115.399Z" stroke="#3113F1" stroke-opacity="0.5" stroke-width="5" stroke-linecap="round" stroke-linejoin="round"/>
<path d="M65.473 122.431C68.7674 118.576 68.3133 112.781 64.4588 109.486C60.6042 106.191 54.809 106.645 51.5146 110.5C48.2202 114.355 48.6743 120.151 52.5288 123.445C56.3833 126.74 62.1786 126.286 65.473 122.431Z" fill="#3113F1" fill-opacity="0.5"/>
<path d="M38.125 361.271C38.125 358.382 40.464 356.043 43.3527 356.043C46.2413 356.043 48.5804 358.382 48.5804 361.271C48.5804 364.16 46.2413 366.499 43.3527 366.499C40.464 366.499 38.125 364.16 38.125 361.271Z" fill="#3113F1" fill-opacity="0.5"/>
<path d="M84.4368 387.099C84.4368 384.21 86.7758 381.871 89.6644 381.871C92.5531 381.871 94.8921 384.21 94.8921 387.099C94.8921 389.988 92.5531 392.327 89.6644 392.327C86.7758 392.327 84.4368 389.988 84.4368 387.099Z" fill="#3113F1" fill-opacity="0.5"/>
<path d="M79.093 503.769C79.093 500.88 81.4321 498.541 84.3207 498.541C87.2093 498.541 89.5484 500.88 89.5484 503.769C89.5484 506.658 87.2093 508.997 84.3207 508.997C81.4321 508.997 79.093 506.658 79.093 503.769Z" fill="#3113F1" fill-opacity="0.5"/>
<path d="M204.642 27.2281C204.642 24.3392 206.981 22 209.869 22C212.758 22 215.097 24.3392 215.097 27.2281C215.097 30.1169 212.758 32.4561 209.869 32.4561C206.981 32.4561 204.642 30.1169 204.642 27.2281Z" fill="#3113F1" fill-opacity="0.5"/>
<path d="M108.483 117.243C108.483 114.354 110.822 112.015 113.711 112.015C116.6 112.015 118.939 114.354 118.939 117.243C118.939 120.132 116.6 122.471 113.711 122.471C110.822 122.471 108.483 120.132 108.483 117.243Z" fill="#3113F1" fill-opacity="0.5"/>
<path d="M45.6416 54.2281C45.6416 51.3392 47.9806 49 50.8693 49C53.7579 49 56.097 51.3392 56.097 54.2281C56.097 57.1169 53.7579 59.4561 50.8693 59.4561C47.9806 59.4561 45.6416 57.1169 45.6416 54.2281Z" fill="#3113F1" fill-opacity="0.5"/>
<path d="M136.642 49.2281C136.642 46.3392 138.981 44 141.869 44C144.758 44 147.097 46.3392 147.097 49.2281C147.097 52.1169 144.758 54.4561 141.869 54.4561C138.981 54.4561 136.642 52.1169 136.642 49.2281Z" fill="#3113F1" fill-opacity="0.5"/>
<path d="M97.6416 69.2281C97.6416 66.3392 99.9806 64 102.869 64C105.758 64 108.097 66.3392 108.097 69.2281C108.097 72.1169 105.758 74.4561 102.869 74.4561C99.9806 74.4561 97.6416 72.1169 97.6416 69.2281Z" fill="#3113F1" fill-opacity="0.5"/>
<path d="M146.521 162.514C146.521 160.383 148.249 158.648 150.387 158.648C152.518 158.648 154.253 160.377 154.253 162.514C154.253 164.652 152.524 166.381 150.387 166.381C148.256 166.381 146.521 164.652 146.521 162.514Z" fill="#3113F1" fill-opacity="0.5"/>
<path d="M155.903 168.036C158.951 164.988 158.951 160.046 155.903 156.997C152.855 153.949 147.913 153.949 144.865 156.997C141.817 160.046 141.817 164.988 144.865 168.036C147.913 171.084 152.855 171.084 155.903 168.036Z" stroke="#3113F1" stroke-opacity="0.5" stroke-width="4" stroke-linecap="round" stroke-linejoin="round"/>
<path d="M45.2998 431.203C45.2998 429.071 47.028 427.337 49.1655 427.337C51.2968 427.337 53.0313 429.065 53.0313 431.203C53.0313 433.341 51.3029 435.069 49.1655 435.069C47.0341 435.069 45.2998 433.341 45.2998 431.203Z" fill="#3113F1" fill-opacity="0.5"/>
<path d="M54.6815 436.725C57.7294 433.677 57.7293 428.734 54.6814 425.686C51.6334 422.638 46.6918 422.638 43.6439 425.686C40.5959 428.734 40.5958 433.677 43.6437 436.725C46.6917 439.773 51.6335 439.773 54.6815 436.725Z" stroke="#3113F1" stroke-opacity="0.5" stroke-width="4" stroke-linecap="round" stroke-linejoin="round"/>
<path d="M131.689 226.363C131.689 224.231 133.417 222.497 135.555 222.497C137.686 222.497 139.421 224.225 139.421 226.363C139.421 228.5 137.692 230.229 135.555 230.229C133.424 230.229 131.689 228.5 131.689 226.363Z" fill="#3113F1" fill-opacity="0.5"/>
<path d="M141.071 231.884C144.119 228.836 144.119 223.894 141.071 220.846C138.023 217.798 133.081 217.798 130.033 220.846C126.985 223.894 126.985 228.836 130.033 231.884C133.081 234.933 138.023 234.933 141.071 231.884Z" stroke="#3113F1" stroke-opacity="0.5" stroke-width="4" stroke-linecap="round" stroke-linejoin="round"/>
<path d="M38.1746 230.815C38.1746 228.684 39.9028 226.949 42.0402 226.949C44.1716 226.949 45.906 228.678 45.906 230.815C45.906 232.953 44.1777 234.681 42.0402 234.681C39.9089 234.681 38.1746 232.953 38.1746 230.815Z" fill="#3113F1" fill-opacity="0.5"/>
<path d="M47.5565 236.337C50.6044 233.288 50.6043 228.346 47.5564 225.298C44.5084 222.25 39.5668 222.25 36.5189 225.298C33.4709 228.346 33.4708 233.288 36.5187 236.337C39.5667 239.385 44.5085 239.385 47.5565 236.337Z" stroke="#3113F1" stroke-opacity="0.5" stroke-width="4" stroke-linecap="round" stroke-linejoin="round"/>
<path d="M918.414 284.744L893.722 270.342L869.034 284.747L869.035 313.553L893.726 327.955L918.416 313.551L918.414 284.744Z" stroke="#3113F1" stroke-opacity="0.5" stroke-width="5" stroke-linecap="round" stroke-linejoin="round"/>
<path d="M892.847 385.43L868.155 371.028L843.466 385.433L843.468 414.239L868.159 428.641L892.849 414.237L892.847 385.43Z" stroke="#3113F1" stroke-opacity="0.5" stroke-width="5" stroke-linecap="round" stroke-linejoin="round"/>
<path d="M790.427 439.773L771.278 428.641L752.132 439.775L752.133 462.04L771.281 473.171L790.428 462.038L790.427 439.773Z" stroke="#3113F1" stroke-opacity="0.5" stroke-width="5" stroke-linecap="round" stroke-linejoin="round"/>
<path d="M897.562 451.176C894.268 455.031 894.722 460.827 898.577 464.121C902.431 467.416 908.226 466.962 911.521 463.107C914.815 459.252 914.361 453.457 910.507 450.162C906.652 446.867 900.857 447.321 897.562 451.176Z" fill="#3113F1" fill-opacity="0.5"/>
<path d="M918.676 242.618C918.676 245.506 916.337 247.846 913.448 247.846C910.56 247.846 908.221 245.506 908.221 242.618C908.221 239.729 910.56 237.39 913.448 237.39C916.337 237.39 918.676 239.729 918.676 242.618Z" fill="#3113F1" fill-opacity="0.5"/>
<path d="M924.91 156.228C924.91 159.117 922.571 161.456 919.683 161.456C916.794 161.456 914.455 159.117 914.455 156.228C914.455 153.339 916.794 151 919.683 151C922.571 151 924.91 153.339 924.91 156.228Z" fill="#3113F1" fill-opacity="0.5"/>
<path d="M937.379 261.32C937.379 264.209 935.04 266.548 932.151 266.548C929.263 266.548 926.924 264.209 926.924 261.32C926.924 258.431 929.263 256.092 932.151 256.092C935.04 256.092 937.379 258.431 937.379 261.32Z" fill="#3113F1" fill-opacity="0.5"/>
<path d="M752.132 521.38C752.132 524.269 749.793 526.608 746.904 526.608C744.015 526.608 741.676 524.269 741.676 521.38C741.676 518.491 744.015 516.152 746.904 516.152C749.793 516.152 752.132 518.491 752.132 521.38Z" fill="#3113F1" fill-opacity="0.5"/>
<path d="M854.552 456.365C854.552 459.254 852.213 461.593 849.325 461.593C846.436 461.593 844.097 459.254 844.097 456.365C844.097 453.476 846.436 451.137 849.325 451.137C852.213 451.137 854.552 453.476 854.552 456.365Z" fill="#3113F1" fill-opacity="0.5"/>
<path d="M900.864 509.802C900.864 512.691 898.525 515.03 895.636 515.03C892.748 515.03 890.409 512.691 890.409 509.802C890.409 506.913 892.748 504.574 895.636 504.574C898.525 504.574 900.864 506.913 900.864 509.802Z" fill="#3113F1" fill-opacity="0.5"/>
<path d="M801.115 492.88C801.115 495.769 798.776 498.108 795.888 498.108C792.999 498.108 790.66 495.769 790.66 492.88C790.66 489.991 792.999 487.652 795.888 487.652C798.776 487.652 801.115 489.991 801.115 492.88Z" fill="#3113F1" fill-opacity="0.5"/>
<path d="M842.083 498.225C842.083 501.113 839.744 503.453 836.856 503.453C833.967 503.453 831.628 501.113 831.628 498.225C831.628 495.336 833.967 492.996 836.856 492.996C839.744 492.996 842.083 495.336 842.083 498.225Z" fill="#3113F1" fill-opacity="0.5"/>
<path d="M816.514 411.094C816.514 413.225 814.786 414.959 812.649 414.959C810.517 414.959 808.783 413.231 808.783 411.094C808.783 408.956 810.511 407.227 812.649 407.227C814.78 407.227 816.514 408.956 816.514 411.094Z" fill="#3113F1" fill-opacity="0.5"/>
<path d="M807.133 405.572C804.085 408.62 804.085 413.562 807.133 416.611C810.181 419.659 815.122 419.659 818.17 416.611C821.218 413.562 821.218 408.62 818.17 405.572C815.122 402.524 810.181 402.524 807.133 405.572Z" stroke="#3113F1" stroke-opacity="0.5" stroke-width="4" stroke-linecap="round" stroke-linejoin="round"/>
<path d="M929.356 203.9C929.356 206.031 927.628 207.766 925.49 207.766C923.359 207.766 921.624 206.037 921.624 203.9C921.624 201.762 923.353 200.034 925.49 200.034C927.621 200.034 929.356 201.762 929.356 203.9Z" fill="#3113F1" fill-opacity="0.5"/>
<path d="M919.974 198.378C916.926 201.426 916.926 206.369 919.974 209.417C923.022 212.465 927.963 212.465 931.011 209.417C934.059 206.369 934.059 201.426 931.012 198.378C927.964 195.33 923.022 195.33 919.974 198.378Z" stroke="#3113F1" stroke-opacity="0.5" stroke-width="4" stroke-linecap="round" stroke-linejoin="round"/>
<path d="M696.906 526.303C696.906 528.435 695.177 530.169 693.04 530.169C690.908 530.169 689.174 528.441 689.174 526.303C689.174 524.165 690.902 522.437 693.04 522.437C695.171 522.437 696.906 524.165 696.906 526.303Z" fill="#3113F1" fill-opacity="0.5"/>
<path d="M687.524 520.782C684.476 523.83 684.476 528.772 687.524 531.82C690.572 534.868 695.513 534.868 698.561 531.82C701.609 528.772 701.61 523.83 698.562 520.782C695.514 517.733 690.572 517.733 687.524 520.782Z" stroke="#3113F1" stroke-opacity="0.5" stroke-width="4" stroke-linecap="round" stroke-linejoin="round"/>
<path d="M924.861 342.793C924.861 344.924 923.133 346.659 920.995 346.659C918.864 346.659 917.129 344.93 917.129 342.793C917.129 340.655 918.858 338.927 920.995 338.927C923.127 338.927 924.861 340.655 924.861 342.793Z" fill="#3113F1" fill-opacity="0.5"/>
<path d="M915.479 337.271C912.431 340.32 912.431 345.262 915.479 348.31C918.527 351.358 923.469 351.358 926.517 348.31C929.565 345.262 929.565 340.32 926.517 337.271C923.469 334.223 918.527 334.223 915.479 337.271Z" stroke="#3113F1" stroke-opacity="0.5" stroke-width="4" stroke-linecap="round" stroke-linejoin="round"/>
</svg>
