<svg width="290" height="296" viewBox="0 0 290 296" fill="none" xmlns="http://www.w3.org/2000/svg">
<mask id="mask0_321_293" style="mask-type:alpha" maskUnits="userSpaceOnUse" x="0" y="0" width="290" height="290">
<circle cx="145" cy="145" r="139" stroke="black" stroke-width="12"/>
<path d="M157.214 217C155.889 217 154.619 216.806 153.405 216.418C152.19 216.03 151.031 215.282 149.927 214.174L87.8157 151.83C86.7115 150.722 85.9662 149.558 85.5797 148.339C85.1932 147.12 85 145.845 85 144.515V93.975C85 91.0933 85.9386 88.7104 87.8157 86.8262C89.6928 84.9421 92.0668 84 94.9377 84H145.289C146.614 84 147.939 84.194 149.264 84.5819C150.589 84.9698 151.804 85.7179 152.908 86.8262L214.687 148.838C216.896 151.054 218 153.52 218 156.236C218 158.951 216.896 161.417 214.687 163.634L164.336 214.174C163.453 215.06 162.376 215.753 161.106 216.252C159.837 216.751 158.539 217 157.214 217ZM157.545 207.357L207.897 156.817L145.289 93.975H94.9377V144.515L157.545 207.357ZM112.329 119.91C114.648 119.91 116.663 119.051 118.374 117.333C120.086 115.615 120.941 113.592 120.941 111.265C120.941 108.937 120.086 106.915 118.374 105.197C116.663 103.479 114.648 102.62 112.329 102.62C110.01 102.62 107.995 103.479 106.283 105.197C104.572 106.915 103.716 108.937 103.716 111.265C103.716 113.592 104.572 115.615 106.283 117.333C107.995 119.051 110.01 119.91 112.329 119.91Z" fill="black"/>
</mask>
<g mask="url(#mask0_321_293)">
<rect width="290" height="296" fill="url(#paint0_linear_321_293)"/>
</g>
<defs>
<linearGradient id="paint0_linear_321_293" x1="145" y1="0" x2="145" y2="296" gradientUnits="userSpaceOnUse">
<stop stop-color="#3113F1"/>
<stop offset="1" stop-color="#883DF2"/>
</linearGradient>
</defs>
</svg>
