<svg width="50" height="50" viewBox="0 0 50 50" fill="none" xmlns="http://www.w3.org/2000/svg">
<path d="M38.4 11.4C35 7.9 30.3 6 25.5 6C15.3 6 7.1 14.3 7.2 24.4C7.2 27.6 8.1 30.7 9.6 33.5L7 43L16.7 40.5C19.4 42 22.4 42.7 25.4 42.7C35.5 42.7 43.7 34.4 43.7 24.3C43.7 19.4 41.8 14.8 38.4 11.4ZM25.5 39.6C22.8 39.6 20.1 38.9 17.8 37.5L17.2 37.2L11.4 38.7L12.9 33L12.5 32.4C8.1 25.3 10.2 15.9 17.4 11.5C24.6 7.1 33.9 9.2 38.3 16.4C42.7 23.6 40.6 32.9 33.4 37.3C31.1 38.8 28.3 39.6 25.5 39.6ZM34.3 28.5L33.2 28C33.2 28 31.6 27.3 30.6 26.8C30.5 26.8 30.4 26.7 30.3 26.7C30 26.7 29.8 26.8 29.6 26.9C29.6 26.9 29.5 27 28.1 28.6C28 28.8 27.8 28.9 27.6 28.9H27.5C27.4 28.9 27.2 28.8 27.1 28.7L26.6 28.5C25.5 28 24.5 27.4 23.7 26.6C23.5 26.4 23.2 26.2 23 26C22.3 25.3 21.6 24.5 21.1 23.6L21 23.4C20.9 23.3 20.9 23.2 20.8 23C20.8 22.8 20.8 22.6 20.9 22.5C20.9 22.5 21.3 22 21.6 21.7C21.8 21.5 21.9 21.2 22.1 21C22.3 20.7 22.4 20.3 22.3 20C22.2 19.5 21 16.8 20.7 16.2C20.5 15.9 20.3 15.8 20 15.7H19.7C19.5 15.7 19.2 15.7 18.9 15.7C18.7 15.7 18.5 15.8 18.3 15.8L18.2 15.9C18 16 17.8 16.2 17.6 16.3C17.4 16.5 17.3 16.7 17.1 16.9C16.4 17.8 16 18.9 16 20C16 20.8 16.2 21.6 16.5 22.3L16.6 22.6C17.5 24.5 18.7 26.2 20.3 27.7L20.7 28.1C21 28.4 21.3 28.6 21.5 28.9C23.6 30.7 26 32 28.7 32.7C29 32.8 29.4 32.8 29.7 32.9C30 32.9 30.4 32.9 30.7 32.9C31.2 32.9 31.8 32.7 32.2 32.5C32.5 32.3 32.7 32.3 32.9 32.1L33.1 31.9C33.3 31.7 33.5 31.6 33.7 31.4C33.9 31.2 34.1 31 34.2 30.8C34.4 30.4 34.5 29.9 34.6 29.4C34.6 29.2 34.6 28.9 34.6 28.7C34.6 28.7 34.5 28.6 34.3 28.5Z" fill="#F5F5F5"/>
</svg>
